<?xml version="1.0" encoding="utf-8"?>
<!-- Generator: Adobe Illustrator 24.0.3, SVG Export Plug-In . SVG Version: 6.00 Build 0)  -->
<svg version="1.1" xmlns="http://www.w3.org/2000/svg" xmlns:xlink="http://www.w3.org/1999/xlink" x="0px" y="0px"
	 viewBox="0 0 98 30" style="enable-background:new 0 0 98 30;" xml:space="preserve">
<style type="text/css">
	.st0{display:none;}
	.st1{display:inline;}
	.st2{font-family:'Lust-Regular-83pv-RKSJ-H';}
	.st3{font-size:40px;}
	.st4{letter-spacing:4;}
</style>
<g id="レイヤー_1" class="st0">
	<text transform="matrix(1 0 0 1 7.9384 28.9996)" class="st1 st2 st3 st4">001</text>
</g>
<g id="レイヤー_1のコピー">
	<g>
		<path d="M30.91,15c0,8.08-5.28,14.28-13.44,14.28c-8.16,0-13.44-6.2-13.44-14.28c0-8.08,5.28-14.28,13.44-14.28
			C25.64,0.72,30.91,6.92,30.91,15z M21.84,15c0-9.6-1.32-13.96-4.36-13.96c-3.04,0-4.36,4.36-4.36,13.96s1.32,13.96,4.36,13.96
			C20.52,28.96,21.84,24.6,21.84,15z"/>
		<path d="M63.79,15c0,8.08-5.28,14.28-13.44,14.28c-8.16,0-13.44-6.2-13.44-14.28c0-8.08,5.28-14.28,13.44-14.28
			C58.52,0.72,63.79,6.92,63.79,15z M54.72,15c0-9.6-1.32-13.96-4.36-13.96C47.32,1.04,46,5.4,46,15s1.32,13.96,4.36,13.96
			C53.4,28.96,54.72,24.6,54.72,15z"/>
		<path d="M69,20.68c3.6-1,11.56-6.84,11.56-10.96c0-1.96-1.52-2.84-3-2.84c-1.28,0-2.56,0.56-3.12,1.88
			c-2.6-0.12-3.84-1.92-3.84-3.92c0-2.08,1.32-4.12,4.4-4.12c4.52,0,5.92,4.24,5.92,8.92c0,4.24-1.12,8.92-2.2,10.96h3.2V8.12
			C83.68,5.84,84.96,3.2,85.75,1h4.4v19.6h4.36V21h-4.36v0.8c0,4.68,0,6.92,4.32,6.92V29H77.6v-0.28c4.32,0,4.32-2.24,4.32-6.92V21
			H69V20.68z"/>
	</g>
</g>
<g id="レイヤー_2" class="st0">
</g>
</svg>
