<?xml version="1.0" encoding="utf-8"?>
<!-- Generator: Adobe Illustrator 24.0.3, SVG Export Plug-In . SVG Version: 6.00 Build 0)  -->
<svg version="1.1" xmlns="http://www.w3.org/2000/svg" xmlns:xlink="http://www.w3.org/1999/xlink" x="0px" y="0px"
	 viewBox="0 0 98 30" style="enable-background:new 0 0 98 30;" xml:space="preserve">
<style type="text/css">
	.st0{display:none;}
	.st1{display:inline;}
	.st2{font-family:'Lust-Regular-83pv-RKSJ-H';}
	.st3{font-size:40px;}
	.st4{letter-spacing:4;}
</style>
<g id="レイヤー_1" class="st0">
	<text transform="matrix(1 0 0 1 7.9384 28.9996)" class="st1 st2 st3 st4">001</text>
</g>
<g id="レイヤー_1のコピー">
	<g>
		<path d="M30.15,15c0,8.08-5.28,14.28-13.44,14.28c-8.16,0-13.44-6.2-13.44-14.28c0-8.08,5.28-14.28,13.44-14.28
			C24.88,0.72,30.15,6.92,30.15,15z M21.08,15c0-9.6-1.32-13.96-4.36-13.96c-3.04,0-4.36,4.36-4.36,13.96s1.32,13.96,4.36,13.96
			C19.76,28.96,21.08,24.6,21.08,15z"/>
		<path d="M63.03,15c0,8.08-5.28,14.28-13.44,14.28c-8.16,0-13.44-6.2-13.44-14.28c0-8.08,5.28-14.28,13.44-14.28
			C57.75,0.72,63.03,6.92,63.03,15z M53.95,15c0-9.6-1.32-13.96-4.36-13.96c-3.04,0-4.36,4.36-4.36,13.96s1.32,13.96,4.36,13.96
			C52.63,28.96,53.95,24.6,53.95,15z"/>
		<path d="M78.12,13.56c6.96-4,16.36-0.8,16.36,6.24c0,6.08-6.08,9.48-12.04,9.48c-8.08,0-13.4-6.2-13.4-14.28
			c0-7.72,5.4-14.28,13.96-14.28c3.52,0,10.04,1.2,10.04,6.44c0,2.96-2.04,4.32-4.12,4.32c-2,0-3.8-1.24-3.92-3.84
			c0.84-0.44,1.52-1.36,1.52-2.76c0-2.28-1.76-3.84-3.8-3.84C79.59,1.04,78.24,4.68,78.12,13.56z M78.12,13.92V15
			c0,9.6,1.32,13.96,4.36,13.96c1.72,0,3.96-0.32,3.96-9.28C86.43,12.52,83.03,11.12,78.12,13.92z"/>
	</g>
</g>
<g id="レイヤー_2" class="st0">
</g>
</svg>
