<?xml version="1.0" encoding="utf-8"?>
<!-- Generator: Adobe Illustrator 24.0.3, SVG Export Plug-In . SVG Version: 6.00 Build 0)  -->
<svg version="1.1" xmlns="http://www.w3.org/2000/svg" xmlns:xlink="http://www.w3.org/1999/xlink" x="0px" y="0px"
	 viewBox="0 0 98 30" style="enable-background:new 0 0 98 30;" xml:space="preserve">
<style type="text/css">
	.st0{display:none;}
	.st1{display:inline;}
	.st2{font-family:'Lust-Regular-83pv-RKSJ-H';}
	.st3{font-size:40px;}
	.st4{letter-spacing:4;}
</style>
<g id="レイヤー_1" class="st0">
	<text transform="matrix(1 0 0 1 7.9384 28.9996)" class="st1 st2 st3 st4">001</text>
</g>
<g id="レイヤー_1のコピー">
	<g>
		<path d="M31.77,15c0,8.08-5.28,14.28-13.44,14.28C10.18,29.28,4.9,23.08,4.9,15c0-8.08,5.28-14.28,13.44-14.28
			C26.5,0.72,31.77,6.92,31.77,15z M22.7,15c0-9.6-1.32-13.96-4.36-13.96c-3.04,0-4.36,4.36-4.36,13.96s1.32,13.96,4.36,13.96
			C21.38,28.96,22.7,24.6,22.7,15z"/>
		<path d="M64.65,15c0,8.08-5.28,14.28-13.44,14.28c-8.16,0-13.44-6.2-13.44-14.28c0-8.08,5.28-14.28,13.44-14.28
			C59.38,0.72,64.65,6.92,64.65,15z M55.58,15c0-9.6-1.32-13.96-4.36-13.96c-3.04,0-4.36,4.36-4.36,13.96s1.32,13.96,4.36,13.96
			C54.26,28.96,55.58,24.6,55.58,15z"/>
		<path d="M93.05,2.96c0.04-0.64,0-1.36-0.04-2.08h0.24c0.04,0.84,0.08,1.64,0.04,2.36c0,6.52-10.24,10.68-10.24,18.92
			c0,1.28,0.56,2.72,1.88,3.28c-0.16,2.52-2.48,3.84-4.8,3.84c-2.8,0-5.32-1.68-5.32-4.68c0-7.8,16.36-11.96,18.08-19.92h-0.04
			c-0.8,2.92-3.4,4.96-6.8,4.96c-3.92,0-7.92-1.36-12.16-1.36c-1.8,0-3.56,0.44-3.96,2.36l-0.28-0.04c0.76-4.68,2.12-10,7.44-10
			C81.46,0.6,91.77,5.2,93.05,2.96z"/>
	</g>
</g>
<g id="レイヤー_2" class="st0">
</g>
</svg>
