<?xml version="1.0" encoding="utf-8"?>
<!-- Generator: Adobe Illustrator 24.0.3, SVG Export Plug-In . SVG Version: 6.00 Build 0)  -->
<svg version="1.1" xmlns="http://www.w3.org/2000/svg" xmlns:xlink="http://www.w3.org/1999/xlink" x="0px" y="0px"
	 viewBox="0 0 98 30" style="enable-background:new 0 0 98 30;" xml:space="preserve">
<style type="text/css">
	.st0{display:none;}
	.st1{display:inline;}
	.st2{font-family:'Lust-Regular-83pv-RKSJ-H';}
	.st3{font-size:40px;}
	.st4{letter-spacing:4;}
</style>
<g id="レイヤー_1" class="st0">
	<text transform="matrix(1 0 0 1 7.9384 28.9996)" class="st1 st2 st3 st4">001</text>
</g>
<g id="レイヤー_1のコピー">
	<g>
		<path d="M31.11,15c0,8.08-5.28,14.28-13.44,14.28c-8.16,0-13.44-6.2-13.44-14.28c0-8.08,5.28-14.28,13.44-14.28
			C25.84,0.72,31.11,6.92,31.11,15z M22.04,15c0-9.6-1.32-13.96-4.36-13.96c-3.04,0-4.36,4.36-4.36,13.96s1.32,13.96,4.36,13.96
			C20.72,28.96,22.04,24.6,22.04,15z"/>
		<path d="M63.99,15c0,8.08-5.28,14.28-13.44,14.28c-8.16,0-13.44-6.2-13.44-14.28c0-8.08,5.28-14.28,13.44-14.28
			C58.71,0.72,63.99,6.92,63.99,15z M54.92,15c0-9.6-1.32-13.96-4.36-13.96C47.52,1.04,46.2,5.4,46.2,15s1.32,13.96,4.36,13.96
			C53.6,28.96,54.92,24.6,54.92,15z"/>
		<path d="M69.6,22.8c0-3.44,2.96-5.36,6.08-6.6c-2.6-1.6-4.6-3.72-4.6-6.92c0-5.84,6.68-8.56,11.52-8.56c3.56,0,8.8,1.48,8.8,5.48
			c0,1.88-1.12,3.84-4.12,5.84c3.52,1.68,6.64,3.92,6.64,8.08c0,5.76-5.92,9.16-13.36,9.16C75.36,29.28,69.6,27.64,69.6,22.8z
			 M75.96,16.36c-1.92,1.32-3.6,3.64-3.6,6.12c0,3.6,3.44,6.48,8.52,6.48c3.84,0,7.08-1.64,7.08-4.4
			C87.96,20.72,80.96,19.36,75.96,16.36z M87,11.92c1.52-1.68,2.24-3.52,2.24-5.2c0-3.08-2.4-5.64-6.44-5.64
			c-3.16,0-5.56,1.56-5.56,4.04C77.24,8.52,82.4,9.76,87,11.92z"/>
	</g>
</g>
<g id="レイヤー_2" class="st0">
</g>
</svg>
