<?xml version="1.0" encoding="utf-8"?>
<!-- Generator: Adobe Illustrator 24.0.3, SVG Export Plug-In . SVG Version: 6.00 Build 0)  -->
<svg version="1.1" xmlns="http://www.w3.org/2000/svg" xmlns:xlink="http://www.w3.org/1999/xlink" x="0px" y="0px"
	 viewBox="0 0 98 30" style="enable-background:new 0 0 98 30;" xml:space="preserve">
<style type="text/css">
	.st0{display:none;}
	.st1{display:inline;}
	.st2{font-family:'Lust-Regular-83pv-RKSJ-H';}
	.st3{font-size:40px;}
	.st4{letter-spacing:4;}
</style>
<g id="レイヤー_1" class="st0">
	<text transform="matrix(1 0 0 1 7.9384 28.9996)" class="st1 st2 st3 st4">001</text>
</g>
<g id="レイヤー_1のコピー">
	<g>
		<path d="M30.19,15c0,8.08-5.28,14.28-13.44,14.28C8.6,29.28,3.32,23.08,3.32,15c0-8.08,5.28-14.28,13.44-14.28
			C24.92,0.72,30.19,6.92,30.19,15z M21.12,15c0-9.6-1.32-13.96-4.36-13.96C13.72,1.04,12.4,5.4,12.4,15s1.32,13.96,4.36,13.96
			C19.8,28.96,21.12,24.6,21.12,15z"/>
		<path d="M63.07,15c0,8.08-5.28,14.28-13.44,14.28c-8.16,0-13.44-6.2-13.44-14.28c0-8.08,5.28-14.28,13.44-14.28
			C57.79,0.72,63.07,6.92,63.07,15z M54,15c0-9.6-1.32-13.96-4.36-13.96c-3.04,0-4.36,4.36-4.36,13.96s1.32,13.96,4.36,13.96
			C52.68,28.96,54,24.6,54,15z"/>
		<path d="M85.43,16.44c-7,4.04-16.36,0.84-16.36-6.24c0-6.64,6.08-9.48,12.04-9.48c7.88,0,13.32,5.48,13.32,13.68
			c0,7.6-5.08,14.88-13.88,14.88c-3.52,0-10.04-1.2-10.04-6.44c0-2.96,2.04-4.32,4.12-4.32c2,0,3.8,1.24,3.92,3.84
			c-0.84,0.44-1.52,1.36-1.52,2.76c0,2.28,1.76,3.84,3.8,3.84C84.27,28.96,85.23,23.76,85.43,16.44z M85.43,16.12
			c0-1.2,0.04-2.44,0.04-3.76c0-7.76-1.64-11.32-4.4-11.32c-1.64,0-4,0.28-4,7.8C77.08,16.16,79.75,19.48,85.43,16.12z"/>
	</g>
</g>
<g id="レイヤー_2" class="st0">
</g>
</svg>
