<?xml version="1.0" encoding="utf-8"?>
<!-- Generator: Adobe Illustrator 24.0.3, SVG Export Plug-In . SVG Version: 6.00 Build 0)  -->
<svg version="1.1" xmlns="http://www.w3.org/2000/svg" xmlns:xlink="http://www.w3.org/1999/xlink" x="0px" y="0px"
	 viewBox="0 0 98 30" style="enable-background:new 0 0 98 30;" xml:space="preserve">
<style type="text/css">
	.st0{display:none;}
	.st1{display:inline;}
	.st2{font-family:'Lust-Regular-83pv-RKSJ-H';}
	.st3{font-size:40px;}
	.st4{letter-spacing:4;}
</style>
<g id="レイヤー_1" class="st0">
	<text transform="matrix(1 0 0 1 7.9384 28.9996)" class="st1 st2 st3 st4">001</text>
</g>
<g id="レイヤー_1のコピー">
	<g>
		<path d="M36.77,15c0,8.08-5.28,14.28-13.44,14.28C15.18,29.28,9.9,23.08,9.9,15c0-8.08,5.28-14.28,13.44-14.28
			C31.5,0.72,36.77,6.92,36.77,15z M27.7,15c0-9.6-1.32-13.96-4.36-13.96c-3.04,0-4.36,4.36-4.36,13.96s1.32,13.96,4.36,13.96
			C26.38,28.96,27.7,24.6,27.7,15z"/>
		<path d="M42.42,29v-0.28c4.32,0,4.32-2.24,4.32-6.92V8.56c-1.2,1.52-2.6,2.84-4.2,3.8l-0.16-0.24c4.16-2.48,6.84-7.4,8.2-11.12
			h4.4v20.8c0,4.68,0,6.92,4.32,6.92V29H42.42z"/>
		<path d="M64.82,26.92c-0.04,0.64-0.04,1.36,0.04,2.08h-0.28c-0.6-7.64,4.56-10.8,8.92-13.88c3.12-2.2,5.68-5.24,5.68-9.4
			c0-2.48-1.24-4.68-3.84-4.68c-2.48,0-4,1.6-4,3.88c0,1.36,0.68,2.28,1.52,2.72c-0.12,2.6-1.92,3.84-3.92,3.84
			c-2.08,0-4.12-1.36-4.12-4.32c0-5.52,7.2-6.44,10.56-6.44c8.44,0,12.2,2.48,12.2,7c0,5.24-5.12,7.44-10.24,8.68
			c-3.92,0.96-8,1.72-10.48,4.92c1.24-1.32,2.92-1.88,4.8-1.88c3.92,0,8.12,2.44,12.36,2.44c1.8,0,3.56-0.44,3.96-2.36l0.28,0.04
			c-0.76,4.68-2.12,9.72-7.44,9.72C76.42,29.28,66.1,24.68,64.82,26.92z"/>
	</g>
</g>
<g id="レイヤー_2" class="st0">
</g>
</svg>
