<?xml version="1.0" encoding="utf-8"?>
<!-- Generator: Adobe Illustrator 24.0.3, SVG Export Plug-In . SVG Version: 6.00 Build 0)  -->
<svg version="1.1" xmlns="http://www.w3.org/2000/svg" xmlns:xlink="http://www.w3.org/1999/xlink" x="0px" y="0px"
	 viewBox="0 0 98 30" style="enable-background:new 0 0 98 30;" xml:space="preserve">
<style type="text/css">
	.st0{display:none;}
	.st1{display:inline;}
	.st2{font-family:'Lust-Regular-83pv-RKSJ-H';}
	.st3{font-size:40px;}
	.st4{letter-spacing:4;}
</style>
<g id="レイヤー_1" class="st0">
	<text transform="matrix(1 0 0 1 7.9384 28.9996)" class="st1 st2 st3 st4">001</text>
</g>
<g id="レイヤー_1のコピー">
	<g>
		<path d="M36.01,15c0,8.08-5.28,14.28-13.44,14.28c-8.16,0-13.44-6.2-13.44-14.28c0-8.08,5.28-14.28,13.44-14.28
			C30.74,0.72,36.01,6.92,36.01,15z M26.94,15c0-9.6-1.32-13.96-4.36-13.96c-3.04,0-4.36,4.36-4.36,13.96s1.32,13.96,4.36,13.96
			C25.62,28.96,26.94,24.6,26.94,15z"/>
		<path d="M41.66,29v-0.28c4.32,0,4.32-2.24,4.32-6.92V8.56c-1.2,1.52-2.6,2.84-4.2,3.8l-0.16-0.24c4.16-2.48,6.84-7.4,8.2-11.12
			h4.4v20.8c0,4.68,0,6.92,4.32,6.92V29H41.66z"/>
		<path d="M72.1,13.72V13.4h1.12c3.72,0,5.48-3.36,5.48-7.24c0-3.28-1.28-5.12-3.8-5.12c-2.6,0-3.64,1.96-3.64,3.48
			c0,1.08,0.52,2.04,1.4,2.44c-0.12,2.28-1.76,3.36-3.56,3.36c-1.92,0-3.76-1.16-3.76-3.76c0-4.88,5.92-5.84,9.76-5.84
			c5.64,0,11.68,1.08,11.68,6.04c0,5.52-6.84,6.48-11.48,6.72v0.08c5.52,0,13.32,1.24,13.32,7.8c0,5.16-4.84,7.92-13.84,7.92
			c-3.36,0-10.64-0.92-10.64-6.44c0-2.96,2.04-4.32,4.12-4.32c2,0,3.8,1.24,3.92,3.84c-0.84,0.44-1.52,1.36-1.52,2.72
			c0,2.28,1.84,3.88,4.32,3.88c3.44,0,4.96-3.6,4.96-6.96c0-3.76-1.96-8.28-6.52-8.28H72.1z"/>
	</g>
</g>
<g id="レイヤー_2" class="st0">
</g>
</svg>
