<?xml version="1.0" encoding="utf-8"?>
<!-- Generator: Adobe Illustrator 24.0.3, SVG Export Plug-In . SVG Version: 6.00 Build 0)  -->
<svg version="1.1" xmlns="http://www.w3.org/2000/svg" xmlns:xlink="http://www.w3.org/1999/xlink" x="0px" y="0px"
	 viewBox="0 0 98 30" style="enable-background:new 0 0 98 30;" xml:space="preserve">
<style type="text/css">
	.st0{display:none;}
	.st1{display:inline;}
	.st2{font-family:'Lust-Regular-83pv-RKSJ-H';}
	.st3{font-size:40px;}
	.st4{letter-spacing:4;}
</style>
<g id="レイヤー_1" class="st0">
	<text transform="matrix(1 0 0 1 7.9384 28.9996)" class="st1 st2 st3 st4">001</text>
</g>
<g id="レイヤー_1のコピー">
	<g>
		<path d="M36.09,15c0,8.08-5.28,14.28-13.44,14.28c-8.16,0-13.44-6.2-13.44-14.28c0-8.08,5.28-14.28,13.44-14.28
			C30.82,0.72,36.09,6.92,36.09,15z M27.02,15c0-9.6-1.32-13.96-4.36-13.96C19.62,1.04,18.3,5.4,18.3,15s1.32,13.96,4.36,13.96
			C25.7,28.96,27.02,24.6,27.02,15z"/>
		<path d="M41.74,29v-0.28c4.32,0,4.32-2.24,4.32-6.92V8.56c-1.2,1.52-2.6,2.84-4.2,3.8l-0.16-0.24c4.16-2.48,6.84-7.4,8.2-11.12
			h4.4v20.8c0,4.68,0,6.92,4.32,6.92V29H41.74z"/>
		<path d="M68.22,7.44c-0.44,0-0.88,0.08-1.12,0.2l-1.64,9c5.04-7.96,23.08-8.32,23.08,2.2c0,6.32-6.48,10.44-14.12,10.44
			c-3.68,0-10.6-0.96-10.6-6.4c0-3.04,2.04-4.36,4.12-4.36c2,0,3.8,1.24,3.92,3.84c-0.84,0.44-1.52,1.32-1.52,2.8
			c0,2.2,1.96,3.8,4.12,3.8c3.2,0,5.24-3.44,5.24-6.84c0-7.48-9.88-8.2-14.68-4.84l1.68-9.2c1-5.52,2.4-7.16,5.08-7.16
			c3.2,0,6.96,2.24,11,2.24c2.32,0,3.96-0.72,4.32-2.44l0.24,0.04c-0.72,4.6-2.2,9.2-7.28,9.2C76.3,9.96,70.98,7.44,68.22,7.44z"/>
	</g>
</g>
<g id="レイヤー_2" class="st0">
</g>
</svg>
