<?xml version="1.0" encoding="utf-8"?>
<!-- Generator: Adobe Illustrator 24.0.3, SVG Export Plug-In . SVG Version: 6.00 Build 0)  -->
<svg version="1.1" xmlns="http://www.w3.org/2000/svg" xmlns:xlink="http://www.w3.org/1999/xlink" x="0px" y="0px"
	 viewBox="0 0 98 30" style="enable-background:new 0 0 98 30;" xml:space="preserve">
<style type="text/css">
	.st0{display:none;}
	.st1{display:inline;}
	.st2{font-family:'Lust-Regular-83pv-RKSJ-H';}
	.st3{font-size:40px;}
	.st4{letter-spacing:4;}
</style>
<g id="レイヤー_1" class="st0">
	<text transform="matrix(1 0 0 1 7.9384 28.9996)" class="st1 st2 st3 st4">001</text>
</g>
<g id="レイヤー_1のコピー">
	<g>
		<path d="M36.49,15c0,8.08-5.28,14.28-13.44,14.28c-8.16,0-13.44-6.2-13.44-14.28c0-8.08,5.28-14.28,13.44-14.28
			C31.22,0.72,36.49,6.92,36.49,15z M27.42,15c0-9.6-1.32-13.96-4.36-13.96C20.02,1.04,18.7,5.4,18.7,15s1.32,13.96,4.36,13.96
			C26.1,28.96,27.42,24.6,27.42,15z"/>
		<path d="M42.14,29v-0.28c4.32,0,4.32-2.24,4.32-6.92V8.56c-1.2,1.52-2.6,2.84-4.2,3.8l-0.16-0.24c4.16-2.48,6.84-7.4,8.2-11.12
			h4.4v20.8c0,4.68,0,6.92,4.32,6.92V29H42.14z"/>
		<path d="M64.22,22.8c0-3.44,2.96-5.36,6.08-6.6c-2.6-1.6-4.6-3.72-4.6-6.92c0-5.84,6.68-8.56,11.52-8.56c3.56,0,8.8,1.48,8.8,5.48
			c0,1.88-1.12,3.84-4.12,5.84c3.52,1.68,6.64,3.92,6.64,8.08c0,5.76-5.92,9.16-13.36,9.16C69.98,29.28,64.22,27.64,64.22,22.8z
			 M70.58,16.36c-1.92,1.32-3.6,3.64-3.6,6.12c0,3.6,3.44,6.48,8.52,6.48c3.84,0,7.08-1.64,7.08-4.4
			C82.58,20.72,75.58,19.36,70.58,16.36z M81.62,11.92c1.52-1.68,2.24-3.52,2.24-5.2c0-3.08-2.4-5.64-6.44-5.64
			c-3.16,0-5.56,1.56-5.56,4.04C71.86,8.52,77.02,9.76,81.62,11.92z"/>
	</g>
</g>
<g id="レイヤー_2" class="st0">
</g>
</svg>
