<?xml version="1.0" encoding="utf-8"?>
<!-- Generator: Adobe Illustrator 24.0.3, SVG Export Plug-In . SVG Version: 6.00 Build 0)  -->
<svg version="1.1" xmlns="http://www.w3.org/2000/svg" xmlns:xlink="http://www.w3.org/1999/xlink" x="0px" y="0px"
	 viewBox="0 0 98 30" style="enable-background:new 0 0 98 30;" xml:space="preserve">
<style type="text/css">
	.st0{display:none;}
	.st1{display:inline;}
	.st2{font-family:'Lust-Regular-83pv-RKSJ-H';}
	.st3{font-size:40px;}
	.st4{letter-spacing:4;}
</style>
<g id="レイヤー_1" class="st0">
	<text transform="matrix(1 0 0 1 7.9384 28.9996)" class="st1 st2 st3 st4">001</text>
</g>
<g id="レイヤー_1のコピー">
	<g>
		<path d="M35.57,15c0,8.08-5.28,14.28-13.44,14.28C13.98,29.28,8.7,23.08,8.7,15c0-8.08,5.28-14.28,13.44-14.28
			C30.29,0.72,35.57,6.92,35.57,15z M26.5,15c0-9.6-1.32-13.96-4.36-13.96c-3.04,0-4.36,4.36-4.36,13.96s1.32,13.96,4.36,13.96
			C25.18,28.96,26.5,24.6,26.5,15z"/>
		<path d="M41.22,29v-0.28c4.32,0,4.32-2.24,4.32-6.92V8.56c-1.2,1.52-2.6,2.84-4.2,3.8l-0.16-0.24c4.16-2.48,6.84-7.4,8.2-11.12
			h4.4v20.8c0,4.68,0,6.92,4.32,6.92V29H41.22z"/>
		<path d="M80.05,16.44c-7,4.04-16.36,0.84-16.36-6.24c0-6.64,6.08-9.48,12.04-9.48c7.88,0,13.32,5.48,13.32,13.68
			c0,7.6-5.08,14.88-13.88,14.88c-3.52,0-10.04-1.2-10.04-6.44c0-2.96,2.04-4.32,4.12-4.32c2,0,3.8,1.24,3.92,3.84
			c-0.84,0.44-1.52,1.36-1.52,2.76c0,2.28,1.76,3.84,3.8,3.84C78.89,28.96,79.85,23.76,80.05,16.44z M80.05,16.12
			c0-1.2,0.04-2.44,0.04-3.76c0-7.76-1.64-11.32-4.4-11.32c-1.64,0-4,0.28-4,7.8C71.7,16.16,74.38,19.48,80.05,16.12z"/>
	</g>
</g>
<g id="レイヤー_2" class="st0">
</g>
</svg>
