<?xml version="1.0" encoding="utf-8"?>
<!-- Generator: Adobe Illustrator 24.0.3, SVG Export Plug-In . SVG Version: 6.00 Build 0)  -->
<svg version="1.1" xmlns="http://www.w3.org/2000/svg" xmlns:xlink="http://www.w3.org/1999/xlink" x="0px" y="0px"
	 viewBox="0 0 98 30" style="enable-background:new 0 0 98 30;" xml:space="preserve">
<style type="text/css">
	.st0{display:none;}
	.st1{display:inline;}
	.st2{font-family:'Lust-Regular-83pv-RKSJ-H';}
	.st3{font-size:40px;}
	.st4{letter-spacing:4;}
</style>
<g id="レイヤー_1" class="st0">
	<text transform="matrix(1 0 0 1 7.9384 28.9996)" class="st1 st2 st3 st4">001</text>
</g>
<g id="レイヤー_1のコピー">
	<g>
		<path d="M31.39,15c0,8.08-5.28,14.28-13.44,14.28C9.8,29.28,4.52,23.08,4.52,15c0-8.08,5.28-14.28,13.44-14.28
			C26.12,0.72,31.39,6.92,31.39,15z M22.32,15c0-9.6-1.32-13.96-4.36-13.96C14.92,1.04,13.6,5.4,13.6,15s1.32,13.96,4.36,13.96
			C21,28.96,22.32,24.6,22.32,15z"/>
		<path d="M37.32,26.92c-0.04,0.64-0.04,1.36,0.04,2.08h-0.28c-0.6-7.64,4.56-10.8,8.92-13.88c3.12-2.2,5.68-5.24,5.68-9.4
			c0-2.48-1.24-4.68-3.84-4.68c-2.48,0-4,1.6-4,3.88c0,1.36,0.68,2.28,1.52,2.72c-0.12,2.6-1.92,3.84-3.92,3.84
			c-2.08,0-4.12-1.36-4.12-4.32c0-5.52,7.2-6.44,10.56-6.44c8.44,0,12.2,2.48,12.2,7c0,5.24-5.12,7.44-10.24,8.68
			c-3.92,0.96-8,1.72-10.48,4.92c1.24-1.32,2.92-1.88,4.8-1.88c3.92,0,8.12,2.44,12.36,2.44c1.8,0,3.56-0.44,3.96-2.36l0.28,0.04
			c-0.76,4.68-2.12,9.72-7.44,9.72C48.92,29.28,38.6,24.68,37.32,26.92z"/>
		<path d="M93.23,15c0,8.08-5.28,14.28-13.44,14.28c-8.16,0-13.44-6.2-13.44-14.28c0-8.08,5.28-14.28,13.44-14.28
			C87.95,0.72,93.23,6.92,93.23,15z M84.15,15c0-9.6-1.32-13.96-4.36-13.96c-3.04,0-4.36,4.36-4.36,13.96s1.32,13.96,4.36,13.96
			C82.83,28.96,84.15,24.6,84.15,15z"/>
	</g>
</g>
<g id="レイヤー_2" class="st0">
</g>
</svg>
