<?xml version="1.0" encoding="utf-8"?>
<!-- Generator: Adobe Illustrator 24.0.3, SVG Export Plug-In . SVG Version: 6.00 Build 0)  -->
<svg version="1.1" id="レイヤー_1" xmlns="http://www.w3.org/2000/svg" xmlns:xlink="http://www.w3.org/1999/xlink" x="0px"
	 y="0px" viewBox="0 0 486.39 36.23" style="enable-background:new 0 0 486.39 36.23;" xml:space="preserve">
<g>
	<g>
		<path d="M28.13,13.86c1.9-4.3,5.62-13.23-1.99-13.23V0.32h13.68v0.32c-5.44,0-8.74,7.88-11.19,13.27l-8.92,19.66L7.61,8.38
			C5.07,3.03,3.26,0.63,0,0.63V0.32h19.34v0.32c-4.26,0-3.8,3.49-2.08,7.34l6.79,14.95L28.13,13.86z"/>
		<path d="M74.5,11.23h-0.45C73.28,4.39,70.2,0.72,62.4,0.72h-4.53v14.95c5.03,0,8.83-2.26,9.1-7.11h0.32l-0.77,14.63H66.2
			c0.23-4.39-3.31-7.2-8.34-7.2v11.46c0,3.22,0.68,4.17,2.72,4.17c9.06,0,13.73-5.07,15.13-13.09h0.45L74,32.03H43.65v-0.32
			c4.89,0,4.89-2.54,4.89-7.84V8.47c0-5.48,0-7.84-4.89-7.84V0.32h29.72L74.5,11.23z"/>
		<path d="M112.85,33.57L87.62,5.25v13.32c0,6.21,0.18,13.14,7.07,13.14v0.32h-14.9v-0.32c7.02,0,7.34-6.93,7.34-14V9.1
			c0-5.03-0.5-8.47-7.34-8.47V0.32h15.54l17.03,19.34v-5.89c0-6.21-0.18-13.14-7.07-13.14V0.32h14.9v0.32c-7.02,0-7.34,6.93-7.34,14
			C112.85,14.64,112.85,33.57,112.85,33.57z"/>
		<path d="M156.18,0.32l1.13,10.69h-0.45c-0.77-6.84-3.85-10.28-11.64-10.28v23.15c0,5.3,0,7.84,4.89,7.84v0.32H131v-0.32
			c4.89,0,4.89-2.54,4.89-7.84V0.72c-7.79,0-10.87,3.44-11.64,10.28h-0.45l1.13-10.69L156.18,0.32L156.18,0.32z"/>
		<path d="M192.27,21.24c0,7.75-3.71,11.1-11.82,11.1c-8.97,0-14.41-2.04-14.41-11.6V8.47c0-5.48,0-7.84-4.89-7.84V0.32h18.16v0.32
			c-3.49,0-3.94,2.04-3.94,7.84v10.78c0,5.71,0.41,12.46,6.84,12.46c5.84,0,9.56-3.17,9.56-10.46v-7.47
			c0-6.21-0.18-13.14-7.07-13.14V0.32h14.9v0.32c-7.02,0-7.34,6.93-7.34,14v6.6H192.27z"/>
		<path d="M203.44,31.71c4.89,0,4.89-2.54,4.89-7.84V8.47c0-5.48,0-7.84-4.89-7.84V0.32h13.77c7.61,0,18.17,0.18,18.17,7.57
			c0,6.43-8.02,7.79-13.41,8.02V16c9.33,0,11.01,3.04,13.73,8.56c3.04,6.21,3.13,7.29,6.3,7.16v0.32c-2.81,0.18-5.16,0.45-7.2,0.45
			c-4.3,0-7.16-1.22-9.42-7.2c-1.13-2.94-2.49-9.15-6.79-9.15h-0.91v7.75c0,5.39,0.05,7.84,4.03,7.84v0.32h-18.26v-0.34H203.44z
			 M219.03,15.76c4.44,0,6.39-2.31,6.39-7.43c0-4.44-1.5-7.61-6.39-7.61h-1.36v15.04H219.03z"/>
		<path d="M276.45,11.23H276c-0.77-6.84-3.85-10.51-11.64-10.51h-4.53v14.95c5.03,0,8.84-2.26,9.11-7.11h0.32l-0.77,14.63h-0.32
			c0.23-4.39-3.31-7.2-8.34-7.2v11.46c0,3.22,0.68,4.17,2.72,4.17c9.06,0,13.72-5.07,15.13-13.09h0.45l-2.18,13.5H245.6v-0.32
			c4.89,0,4.89-2.54,4.89-7.84V8.47c0-5.48,0-7.84-4.89-7.84V0.32h29.72L276.45,11.23z"/>
		<path d="M320.23,11.19h-0.32c-0.73-5.12-3.63-10.78-10.69-10.78c-3.67,0-6.34,1.77-6.34,4.58c0,7.38,19.75,5.84,19.75,17.12
			c0,6.39-6.7,10.24-14.59,10.24c-2.99,0-6.16-0.54-7.84-1l-3.4,0.91l-0.72-13.09h0.32c0.72,5.3,3.71,12.77,12.05,12.77
			c4.39,0,7.43-1.86,7.43-4.89c0-7.43-19.98-6.57-19.98-17.53c0-5.98,6.3-9.51,12.86-9.51c2.58,0,5.75,0.54,7.43,1l3.44-0.91
			L320.23,11.19z"/>
		<path d="M327.15,31.71c4.89,0,4.89-2.54,4.89-7.84V8.47c0-5.48,0-7.84-4.89-7.84V0.32h16.71c9.92,0,15.18,2.63,15.18,9.2
			c0,7.75-9.69,9.29-16.26,9.29h-1.4v5.07c0,5.48,0.14,7.84,5.53,7.84v0.32h-19.75L327.15,31.71L327.15,31.71z M342.59,18.44
			c4.71,0,6.48-2.72,6.48-8.92c0-6.16-1.77-8.88-6.39-8.88h-1.31v17.8C341.37,18.44,342.59,18.44,342.59,18.44z"/>
		<path d="M364.01,32.03v-0.32c4.89,0,4.89-2.54,4.89-7.84V8.47c0-5.48,0-7.84-4.89-7.84V0.32h19.12v0.32
			c-4.89,0-4.89,2.35-4.89,7.84v15.4c0,5.3,0,7.84,4.89,7.84v0.32h-19.12V32.03z"/>
		<path d="M386.97,31.71c4.89,0,4.89-2.54,4.89-7.84V8.47c0-5.48,0-7.84-4.89-7.84V0.32h13.77c7.61,0,18.17,0.18,18.17,7.57
			c0,6.43-8.02,7.79-13.41,8.02V16c9.33,0,11.01,3.04,13.72,8.56c3.04,6.21,3.13,7.29,6.3,7.16v0.32c-2.81,0.18-5.17,0.45-7.2,0.45
			c-4.31,0-7.16-1.22-9.42-7.2c-1.13-2.94-2.49-9.15-6.79-9.15h-0.91v7.75c0,5.39,0.04,7.84,4.03,7.84v0.32h-18.26L386.97,31.71
			L386.97,31.71z M402.55,15.76c4.44,0,6.39-2.31,6.39-7.43c0-4.44-1.5-7.61-6.39-7.61h-1.36v15.04H402.55z"/>
		<path d="M429.12,32.03v-0.32c4.89,0,4.89-2.54,4.89-7.84V8.47c0-5.48,0-7.84-4.89-7.84V0.32h19.12v0.32
			c-4.89,0-4.89,2.35-4.89,7.84v15.4c0,5.3,0,7.84,4.89,7.84v0.32h-19.12V32.03z"/>
		<path d="M484.47,0.32l1.13,10.69h-0.45c-0.77-6.84-3.85-10.28-11.64-10.28v23.15c0,5.3,0,7.84,4.89,7.84v0.32h-19.12v-0.32
			c4.89,0,4.89-2.54,4.89-7.84V0.72c-7.79,0-10.87,3.44-11.64,10.28h-0.45l1.13-10.69L484.47,0.32L484.47,0.32z"/>
	</g>
</g>
</svg>
