<?xml version="1.0" encoding="utf-8"?>
<!-- Generator: Adobe Illustrator 24.0.3, SVG Export Plug-In . SVG Version: 6.00 Build 0)  -->
<svg version="1.1" xmlns="http://www.w3.org/2000/svg" xmlns:xlink="http://www.w3.org/1999/xlink" x="0px" y="0px"
	 viewBox="0 0 163 15" style="enable-background:new 0 0 163 15;" xml:space="preserve">
<style type="text/css">
	.st0{fill:#FFFFFF;}
	.st1{fill:#231815;}
</style>
<g id="レイヤー_2">
	<rect y="0" class="st0" width="163" height="15"/>
</g>
<g id="レイヤー_1">
	<g>
		<path class="st1" d="M12.56,14.39v-0.14c1.92,0,1.94-0.75,1.94-3.43V1.08L9.01,15.07L3.43,1.4v7.1c0,2.6,0.02,5.75,3.09,5.75v0.14
			H0v-0.14c3.15,0,3.21-3.31,3.21-6.13V3.74c0-2.2-0.38-3.09-2.74-3.09V0.51h7.06l3.47,8.87l3.49-8.87h6.23v0.14
			c-2.14,0-2.14,1.03-2.14,3.43v6.75c0,2.32,0,3.43,2.14,3.43v0.14H12.56z"/>
		<path class="st1" d="M32.46,10.82c0,2.32,0,3.43,2.14,3.43v0.14h-8.37v-0.14c2.14,0,2.14-1.11,2.14-3.43V8.76l-3.43-5.69
			C23.91,1.38,23.39,0.65,22,0.65V0.51h8.47v0.14c-2.2,0-1.13,1.98-0.54,3.04l2.4,4.29l1.01-1.92c1.31-2.5,2.8-5.4-0.04-5.4V0.51
			h5.79v0.14c-2.2,0-4.07,2.56-5.57,5.46l-1.07,2.04V10.82z"/>
		<path class="st1" d="M58.07,14.39v-0.14c1.92,0,1.94-0.75,1.94-3.43V1.08l-5.5,13.98L48.95,1.4v7.1c0,2.6,0.02,5.75,3.09,5.75
			v0.14h-6.53v-0.14c3.15,0,3.21-3.31,3.21-6.13V3.74c0-2.2-0.38-3.09-2.74-3.09V0.51h7.06l3.47,8.87l3.49-8.87h6.23v0.14
			c-2.14,0-2.14,1.03-2.14,3.43v6.75c0,2.32,0,3.43,2.14,3.43v0.14H58.07z"/>
		<path class="st1" d="M81.03,5.29h-0.2c-0.34-3-1.69-4.6-5.1-4.6h-1.98v6.55c2.2,0,3.87-0.99,3.99-3.11h0.14l-0.34,6.41H77.4
			c0.1-1.92-1.45-3.15-3.65-3.15v5.02c0,1.41,0.3,1.82,1.19,1.82c3.97,0,6.01-2.22,6.62-5.73h0.2l-0.95,5.91H67.52v-0.14
			c2.14,0,2.14-1.11,2.14-3.43V4.08c0-2.4,0-3.43-2.14-3.43V0.51h13.01L81.03,5.29z"/>
		<path class="st1" d="M95.91,14.39v-0.14c1.92,0,1.94-0.75,1.94-3.43V1.08l-5.49,13.98L86.79,1.4v7.1c0,2.6,0.02,5.75,3.09,5.75
			v0.14h-6.53v-0.14c3.15,0,3.21-3.31,3.21-6.13V3.74c0-2.2-0.38-3.09-2.74-3.09V0.51h7.06l3.47,8.87l3.49-8.87h6.23v0.14
			c-2.14,0-2.14,1.03-2.14,3.43v6.75c0,2.32,0,3.43,2.14,3.43v0.14H95.91z"/>
		<path class="st1" d="M120.97,7.45c0,4.5-3.71,7.08-7.56,7.08c-3.85,0-7.56-2.58-7.56-7.08c0-4.23,3.39-7.08,7.56-7.08
			C117.58,0.37,120.97,3.23,120.97,7.45z M116.47,7.45c0-2.26,0-6.92-3.05-6.92s-3.05,4.66-3.05,6.92c0,2.32,0,6.92,3.05,6.92
			S116.47,9.77,116.47,7.45z"/>
		<path class="st1" d="M122.76,14.25c2.14,0,2.14-1.11,2.14-3.43V4.08c0-2.4,0-3.43-2.14-3.43V0.51h6.03c3.33,0,7.95,0.08,7.95,3.31
			c0,2.82-3.51,3.41-5.87,3.51v0.04c4.09,0,4.82,1.33,6.01,3.75c1.33,2.72,1.37,3.19,2.76,3.13v0.14c-1.23,0.08-2.26,0.2-3.15,0.2
			c-1.88,0-3.13-0.54-4.13-3.15c-0.5-1.29-1.09-4.01-2.98-4.01h-0.4v3.39c0,2.36,0.02,3.43,1.77,3.43v0.14h-7.99V14.25z
			 M129.59,7.27c1.94,0,2.8-1.01,2.8-3.25c0-1.94-0.65-3.33-2.8-3.33h-0.59v6.59H129.59z"/>
		<path class="st1" d="M151.29,10.82c0,2.32,0,3.43,2.14,3.43v0.14h-8.37v-0.14c2.14,0,2.14-1.11,2.14-3.43V8.76l-3.43-5.69
			c-1.03-1.69-1.55-2.42-2.94-2.42V0.51h8.47v0.14c-2.2,0-1.13,1.98-0.54,3.04l2.4,4.29l1.01-1.92c1.31-2.5,2.8-5.4-0.04-5.4V0.51
			h5.79v0.14c-2.2,0-4.07,2.56-5.57,5.46l-1.07,2.04V10.82z"/>
	</g>
</g>
</svg>
