<?xml version="1.0" encoding="utf-8"?>
<!-- Generator: Adobe Illustrator 24.0.3, SVG Export Plug-In . SVG Version: 6.00 Build 0)  -->
<svg version="1.1" id="レイヤー_1" xmlns="http://www.w3.org/2000/svg" xmlns:xlink="http://www.w3.org/1999/xlink" x="0px"
	 y="0px" viewBox="0 0 12 12" style="enable-background:new 0 0 12 12;" xml:space="preserve">
<style type="text/css">
	.st0{fill:#E76080;}
	.st1{fill:#FFFFFF;}
</style>
<g>
	<rect class="st0" width="12" height="12"/>
	<path class="st1" d="M5.43,5.01h0.08C6,5.01,6.47,4.9,6.47,4.31c0-0.37-0.27-0.59-0.63-0.59c-0.32,0-0.55,0.25-0.54,0.57H4.1
		C4.09,3.34,4.89,2.55,5.84,2.55c0.98,0,1.83,0.78,1.83,1.77c0,0.48-0.17,0.92-0.58,1.19c0.72,0.25,1.05,1.03,1.05,1.77
		c0,1.3-1.04,2.2-2.31,2.2c-1.18,0-2.18-0.95-2.21-2.13h1.21C4.85,7.91,5.34,8.32,5.9,8.32c0.58,0,1.04-0.48,1.04-1.04
		c0-0.4-0.17-0.72-0.47-0.92c-0.29-0.19-0.6-0.22-0.93-0.22H5.43V5.01z"/>
</g>
</svg>
