<?xml version="1.0" encoding="utf-8"?>
<!-- Generator: Adobe Illustrator 24.0.3, SVG Export Plug-In . SVG Version: 6.00 Build 0)  -->
<svg version="1.1" id="レイヤー_1" xmlns="http://www.w3.org/2000/svg" xmlns:xlink="http://www.w3.org/1999/xlink" x="0px"
	 y="0px" viewBox="0 0 350 89.31" style="enable-background:new 0 0 350 89.31;" xml:space="preserve">
<style type="text/css">
	.st0{fill:#787878;}
</style>
<g>
	
		<rect x="166.2" y="74.32" transform="matrix(0.7071 -0.7071 0.7071 0.7071 -0.4767 151.4659)" class="st0" width="32.79" height="3.98"/>
	<g>
		<path d="M23.17,23.17c0,5.14,0,7.61,4.75,7.61v0.31H9.37v-0.31c4.75,0,4.75-2.46,4.75-7.61V18.6L6.51,5.98
			C4.22,2.24,3.08,0.62,0,0.62V0.31h18.78v0.31c-4.88,0-2.51,4.4-1.19,6.73l5.32,9.5l2.24-4.27c2.9-5.54,6.2-11.96-0.09-11.96V0.31
			H37.9v0.31c-4.88,0-9.01,5.67-12.36,12.09l-2.38,4.53V23.17z"/>
		<path d="M73.73,32.58L49.24,5.1v12.93c0,6.02,0.18,12.75,6.86,12.75v0.31H41.63v-0.31c6.82,0,7.12-6.73,7.12-13.59V8.84
			c0-4.88-0.48-8.22-7.12-8.22V0.31h15.08l16.53,18.78v-5.72c0-6.02-0.18-12.75-6.86-12.75V0.31h14.47v0.31
			c-6.82,0-7.12,6.73-7.12,13.59V32.58z"/>
		<path d="M114.57,20.62c0,7.52-3.61,10.77-11.48,10.77c-8.71,0-13.98-1.98-13.98-11.26V8.22c0-5.32,0-7.61-4.75-7.61V0.31H102v0.31
			c-3.38,0-3.82,1.98-3.82,7.61v10.47c0,5.54,0.4,12.09,6.64,12.09c5.67,0,9.28-3.08,9.28-10.16v-7.25c0-6.02-0.18-12.75-6.86-12.75
			V0.31h14.47v0.31c-6.81,0-7.12,6.73-7.12,13.59V20.62z"/>
		<path d="M137.65,30.78c4.75,0,4.75-2.46,4.75-7.61V8.22c0-5.32,0-7.61-4.75-7.61V0.31h16.23c9.63,0,14.73,2.55,14.73,8.93
			c0,7.52-9.41,9.01-15.78,9.01h-1.36v4.92c0,5.32,0.13,7.61,5.36,7.61v0.31h-19.17V30.78z M152.64,17.9c4.57,0,6.29-2.64,6.29-8.66
			c0-5.98-1.72-8.62-6.2-8.62h-1.28V17.9H152.64z"/>
		<path d="M202.06,10.9h-0.44c-0.75-6.64-3.74-10.2-11.3-10.2h-4.4v14.51c4.88,0,8.57-2.2,8.84-6.9h0.31l-0.75,14.2h-0.31
			c0.22-4.27-3.21-6.99-8.09-6.99v11.12c0,3.12,0.66,4.05,2.64,4.05c8.79,0,13.32-4.92,14.69-12.71h0.44l-2.11,13.1h-29.46v-0.31
			c4.75,0,4.75-2.46,4.75-7.61V8.22c0-5.32,0-7.61-4.75-7.61V0.31h28.84L202.06,10.9z"/>
		<path d="M242.69,15.7c0,9.98-8.22,15.7-16.75,15.7s-16.75-5.72-16.75-15.7c0-9.37,7.52-15.7,16.75-15.7S242.69,6.33,242.69,15.7z
			 M232.7,15.7c0-5.01,0-15.35-6.77-15.35c-6.77,0-6.77,10.33-6.77,15.35c0,5.14,0,15.35,6.77,15.35
			C232.7,31.04,232.7,20.84,232.7,15.7z"/>
		<path d="M247.52,30.78c4.75,0,4.75-2.46,4.75-7.61V8.22c0-5.32,0-7.61-4.75-7.61V0.31h16.23c9.63,0,14.73,2.55,14.73,8.93
			c0,7.52-9.41,9.01-15.78,9.01h-1.36v4.92c0,5.32,0.13,7.61,5.36,7.61v0.31h-19.17V30.78z M262.51,17.9c4.57,0,6.29-2.64,6.29-8.66
			c0-5.98-1.72-8.62-6.2-8.62h-1.28V17.9H262.51z"/>
		<path d="M303.22,0.62c-5.98,0-6.11,1.71-6.11,7.61v17.1c0,4.35,0.26,5.41,3.52,5.41c7.74,0,12.09-5.89,13.76-13.45h0.31
			l-2.77,13.81H283.3v-0.31c4.75,0,4.75-2.46,4.75-7.61V8.22c0-5.32,0-7.61-4.75-7.61V0.31h19.92V0.62z"/>
		<path d="M348.37,10.9h-0.44c-0.75-6.64-3.74-10.2-11.3-10.2h-4.4v14.51c4.88,0,8.57-2.2,8.84-6.9h0.31l-0.75,14.2h-0.31
			c0.22-4.27-3.21-6.99-8.09-6.99v11.12c0,3.12,0.66,4.05,2.64,4.05c8.79,0,13.32-4.92,14.69-12.71H350l-2.11,13.1h-29.46v-0.31
			c4.75,0,4.75-2.46,4.75-7.61V8.22c0-5.32,0-7.61-4.75-7.61V0.31h28.84L348.37,10.9z"/>
	</g>
</g>
</svg>
