<svg xmlns="http://www.w3.org/2000/svg" width="97.72" height="81" viewBox="0 0 97.72 81"><defs><style>.a{fill:#fff;}.b{stroke:rgba(250,250,248,0);stroke-width:2px;}</style></defs><g transform="translate(-799 -7990)"><path class="a" d="M40.5,0C62.868,0,97.72,40.5,97.72,40.5S62.868,81,40.5,81a40.5,40.5,0,0,1,0-81Z" transform="translate(799 7990)"/><path class="b" d="M-20.385-12.78H-7.83l1.89,5.67A9.59,9.59,0,0,1-5.4-4.545C-5.4-3.24-6.345-2.7-8.64-2.61v1.125H2.97V-2.61C.36-2.7-.495-3.555-1.755-7.245l-9.54-27.18-2.79.315L-23.67-8.73c-1.71,4.545-3.2,6.12-5.76,6.12v1.125H-18.9V-2.61c-2.61-.09-3.78-.81-3.78-2.43a11.987,11.987,0,0,1,.855-3.69Zm11.97-1.665h-11.34l5.85-15.75ZM10.44-1.485H22.725v-1.3c-2.565-.135-2.745-.18-3.285-.63-.63-.54-.81-1.44-.81-4.455V-21.24c0-5.31.135-9.135.36-12.69a51.622,51.622,0,0,1-8.55,1.17v1.3h1.71c1.125,0,1.665.09,2.025.405s.36.315.45,4.23V-7.875c0,3.24-.225,4.185-1.215,4.635a8.072,8.072,0,0,1-2.97.45Z" transform="translate(839 8045.5)"/></g></svg>