<?xml version="1.0" encoding="utf-8"?>
<!-- Generator: Adobe Illustrator 24.0.3, SVG Export Plug-In . SVG Version: 6.00 Build 0)  -->
<svg version="1.1" id="レイヤー_1" xmlns="http://www.w3.org/2000/svg" xmlns:xlink="http://www.w3.org/1999/xlink" x="0px"
	 y="0px" viewBox="0 0 77 77" style="enable-background:new 0 0 77 77;" xml:space="preserve">
<style type="text/css">
	.st0{fill:#FFFFFF;}
</style>
<g>
	<polyline class="st0" points="0,77 77,0 0,0 0,77 	"/>
	<g>
		<path d="M15.3,29.45c2.86,2.86,3.18,6.92,0.3,9.8c-2.88,2.89-6.94,2.56-9.8-0.3s-3.18-6.92-0.3-9.8
			C8.38,26.26,12.44,26.59,15.3,29.45z M12.09,32.66c-3.39-3.4-5.4-4.47-6.48-3.4c-1.08,1.07,0,3.08,3.4,6.48
			c3.39,3.4,5.4,4.47,6.48,3.4C16.56,38.06,15.48,36.05,12.09,32.66z"/>
		<path d="M26.92,17.82c2.86,2.86,3.18,6.92,0.3,9.8s-6.95,2.56-9.8-0.3c-2.86-2.86-3.18-6.92-0.3-9.8S24.07,14.97,26.92,17.82z
			 M23.71,21.03c-3.4-3.4-5.4-4.47-6.48-3.4c-1.08,1.08,0,3.08,3.39,6.48c3.4,3.4,5.4,4.47,6.48,3.4
			C28.18,26.44,27.11,24.43,23.71,21.03z"/>
		<path d="M27.22,12.18c-0.16,0.16-0.28,0.34-0.33,0.47l2.6,3.76c-1.03-4.6,5.22-11.1,8.94-7.38c2.24,2.24,1.4,5.98-1.3,8.69
			c-1.3,1.3-4.09,3.41-6.01,1.49c-1.07-1.07-0.82-2.26-0.08-3c0.71-0.71,1.78-0.91,2.74-0.03c-0.14,0.45-0.07,1,0.45,1.53
			c0.78,0.78,2.04,0.65,2.8-0.11c1.13-1.13,0.64-3.07-0.57-4.27c-2.65-2.65-6.39,0.59-6.9,3.48l-2.66-3.85
			c-1.6-2.31-1.68-3.38-0.74-4.33c1.13-1.13,3.25-1.67,4.68-3.1C31.67,4.7,32,3.86,31.52,3.13l0.1-0.07
			c1.37,1.88,2.48,4.03,0.68,5.83C30.97,10.21,28.19,11.2,27.22,12.18z"/>
	</g>
</g>
</svg>
