<?xml version="1.0" encoding="utf-8"?>
<!-- Generator: Adobe Illustrator 24.0.3, SVG Export Plug-In . SVG Version: 6.00 Build 0)  -->
<svg version="1.1" id="レイヤー_1" xmlns="http://www.w3.org/2000/svg" xmlns:xlink="http://www.w3.org/1999/xlink" x="0px"
	 y="0px" viewBox="0 0 77 77" style="enable-background:new 0 0 77 77;" xml:space="preserve">
<style type="text/css">
	.st0{fill:#FFFFFF;}
</style>
<g>
	<polyline class="st0" points="0,77 77,0 0,0 0,77 	"/>
	<g>
		<path d="M16.46,28.28c2.86,2.86,3.18,6.92,0.3,9.8s-6.95,2.56-9.8-0.3c-2.86-2.86-3.18-6.92-0.3-9.8S13.61,25.42,16.46,28.28z
			 M13.25,31.49c-3.39-3.4-5.4-4.47-6.48-3.4s0,3.08,3.39,6.48c3.4,3.4,5.4,4.47,6.48,3.4C17.72,36.89,16.65,34.89,13.25,31.49z"/>
		<path d="M23.41,31.24l-0.1-0.1c1.53-1.53,0.74-2.32-0.92-3.98l-4.68-4.68c0.11,0.96,0.08,1.92-0.14,2.83l-0.14-0.03
			c0.59-2.35-0.2-5.04-1.03-6.83l1.56-1.56l7.36,7.36c1.66,1.65,2.45,2.45,3.98,0.92l0.1,0.1L23.41,31.24z"/>
		<path d="M35.91,8.84c2.86,2.86,3.18,6.92,0.3,9.8c-2.89,2.89-6.95,2.56-9.8-0.3c-2.86-2.86-3.18-6.92-0.3-9.8
			C28.99,5.65,33.05,5.98,35.91,8.84z M32.7,12.05c-3.4-3.4-5.4-4.47-6.48-3.4c-1.08,1.08,0,3.08,3.39,6.48
			c3.4,3.4,5.4,4.47,6.48,3.4C37.17,17.45,36.09,15.44,32.7,12.05z"/>
	</g>
</g>
</svg>
