<?xml version="1.0" encoding="utf-8"?>
<!-- Generator: Adobe Illustrator 24.0.3, SVG Export Plug-In . SVG Version: 6.00 Build 0)  -->
<svg version="1.1" id="レイヤー_1" xmlns="http://www.w3.org/2000/svg" xmlns:xlink="http://www.w3.org/1999/xlink" x="0px"
	 y="0px" viewBox="0 0 77.46 77" style="enable-background:new 0 0 77.46 77;" xml:space="preserve">
<style type="text/css">
	.st0{fill:#FFFFFF;}
</style>
<polyline class="st0" points="0,77 77,0 0,0 0,77 "/>
<g>
	<path d="M16.89,27.86c2.86,2.86,3.18,6.92,0.3,9.8c-2.89,2.89-6.95,2.56-9.8-0.3c-2.86-2.86-3.18-6.92-0.3-9.8
		S14.04,25,16.89,27.86z M13.68,31.07c-3.4-3.39-5.4-4.47-6.48-3.4s0,3.08,3.4,6.48s5.4,4.47,6.48,3.4S17.08,34.46,13.68,31.07z"/>
	<path d="M23.84,30.82l-0.1-0.1c1.53-1.53,0.73-2.32-0.92-3.97l-4.68-4.68c0.11,0.96,0.08,1.92-0.14,2.83l-0.14-0.03
		c0.59-2.35-0.2-5.04-1.03-6.83l1.56-1.56l7.36,7.36c1.65,1.65,2.45,2.45,3.98,0.92l0.1,0.1L23.84,30.82z"/>
	<path d="M29.2,14.65l-0.11-0.11l0.4-0.4c1.32-1.32,0.75-3.13-0.62-4.5c-1.16-1.16-2.26-1.36-3.15-0.47
		c-0.92,0.92-0.59,1.98-0.06,2.52c0.38,0.38,0.9,0.54,1.36,0.37c0.76,0.85,0.57,1.81-0.07,2.45c-0.68,0.68-1.74,0.92-2.66,0
		c-1.73-1.73,0.03-4.16,1.39-5.52C27.65,7,30.17,5.24,31.93,7c1.95,1.95-0.13,4.71-1.68,6.44l0.03,0.03
		c1.95-1.95,5.15-4.27,7.47-1.95c1.83,1.83,1.09,4.51-2.09,7.69c-1.19,1.19-4.09,3.44-6.04,1.49c-1.05-1.05-0.81-2.25-0.07-2.98
		c0.71-0.71,1.78-0.91,2.74-0.03c-0.14,0.45-0.06,1.02,0.42,1.5c0.81,0.81,2.02,0.72,2.9-0.16c1.22-1.22,0.48-3.03-0.71-4.22
		c-1.33-1.33-3.62-2.23-5.23-0.62L29.2,14.65z"/>
</g>
</svg>
