<?xml version="1.0" encoding="utf-8"?>
<!-- Generator: Adobe Illustrator 24.0.3, SVG Export Plug-In . SVG Version: 6.00 Build 0)  -->
<svg version="1.1" id="レイヤー_1" xmlns="http://www.w3.org/2000/svg" xmlns:xlink="http://www.w3.org/1999/xlink" x="0px"
	 y="0px" viewBox="0 0 77.46 77" style="enable-background:new 0 0 77.46 77;" xml:space="preserve">
<style type="text/css">
	.st0{fill:#FFFFFF;}
</style>
<polyline class="st0" points="0,77 77,0 0,0 0,77 "/>
<g>
	<path d="M16.92,27.83c2.86,2.86,3.18,6.92,0.3,9.8c-2.89,2.89-6.95,2.56-9.8-0.3c-2.86-2.86-3.18-6.92-0.3-9.8
		C10,24.65,14.06,24.97,16.92,27.83z M13.71,31.04c-3.4-3.4-5.4-4.47-6.48-3.4c-1.08,1.08,0,3.08,3.4,6.48s5.4,4.47,6.48,3.4
		C18.18,36.44,17.11,34.43,13.71,31.04z"/>
	<path d="M23.86,30.79l-0.1-0.1c1.53-1.53,0.73-2.32-0.92-3.97l-4.68-4.68c0.11,0.96,0.08,1.92-0.14,2.83l-0.14-0.03
		c0.59-2.35-0.2-5.04-1.03-6.83l1.56-1.56l7.36,7.36c1.65,1.65,2.45,2.45,3.98,0.92l0.1,0.1L23.86,30.79z"/>
	<path d="M25.6,13.8c-0.16,0.16-0.28,0.34-0.33,0.47l2.6,3.76c-1.03-4.6,5.22-11.1,8.94-7.38c2.24,2.24,1.4,5.98-1.3,8.69
		c-1.3,1.3-4.09,3.41-6.01,1.49c-1.07-1.07-0.82-2.26-0.08-3c0.71-0.71,1.78-0.91,2.74-0.03c-0.14,0.45-0.07,1,0.45,1.53
		c0.78,0.78,2.04,0.65,2.8-0.11c1.13-1.13,0.64-3.07-0.57-4.27c-2.65-2.65-6.39,0.59-6.9,3.48l-2.66-3.85
		c-1.6-2.31-1.68-3.38-0.74-4.33c1.13-1.13,3.25-1.67,4.68-3.1c0.82-0.82,1.15-1.66,0.67-2.39L30,4.68
		c1.37,1.88,2.48,4.03,0.68,5.83C29.35,11.83,26.58,12.82,25.6,13.8z"/>
</g>
</svg>
