<?xml version="1.0" encoding="utf-8"?>
<!-- Generator: Adobe Illustrator 24.0.3, SVG Export Plug-In . SVG Version: 6.00 Build 0)  -->
<svg version="1.1" id="レイヤー_1" xmlns="http://www.w3.org/2000/svg" xmlns:xlink="http://www.w3.org/1999/xlink" x="0px"
	 y="0px" viewBox="0 0 77.46 77" style="enable-background:new 0 0 77.46 77;" xml:space="preserve">
<style type="text/css">
	.st0{fill:#FFFFFF;}
</style>
<polyline class="st0" points="0,77 77,0 0,0 0,77 "/>
<g>
	<path d="M16.72,28.03c2.86,2.86,3.18,6.92,0.3,9.8c-2.89,2.89-6.94,2.56-9.8-0.3c-2.86-2.86-3.18-6.92-0.3-9.8
		S13.87,25.17,16.72,28.03z M13.51,31.24c-3.4-3.4-5.4-4.47-6.48-3.4c-1.07,1.07,0,3.08,3.4,6.48s5.4,4.47,6.48,3.4
		C17.98,36.64,16.91,34.63,13.51,31.24z"/>
	<path d="M23.67,30.99l-0.1-0.1c1.53-1.53,0.74-2.32-0.92-3.98l-4.68-4.68c0.11,0.96,0.08,1.92-0.14,2.83l-0.14-0.03
		c0.59-2.35-0.2-5.04-1.03-6.83l1.56-1.56L25.56,24c1.65,1.65,2.45,2.45,3.97,0.92l0.1,0.1L23.67,30.99z"/>
	<path d="M29.36,14.37c1.05-3.88,5.5-6.07,7.99-3.58c2.15,2.15,1.2,5.5-0.91,7.61c-2.86,2.86-6.93,2.55-9.79-0.31
		c-2.73-2.73-3.14-6.96-0.11-9.99c1.25-1.25,3.97-3.13,5.83-1.27c1.05,1.05,0.81,2.25,0.07,2.98c-0.71,0.71-1.78,0.91-2.74,0.03
		c0.14-0.45,0.06-1.02-0.44-1.51c-0.81-0.81-1.98-0.74-2.7-0.01C25.46,9.42,26.27,11.18,29.36,14.37z M29.49,14.49l0.38,0.38
		c3.4,3.4,5.4,4.47,6.48,3.4c0.61-0.61,1.29-1.51-1.88-4.68C31.94,11.06,30.24,11.76,29.49,14.49z"/>
</g>
</svg>
