<?xml version="1.0" encoding="utf-8"?>
<!-- Generator: Adobe Illustrator 24.0.3, SVG Export Plug-In . SVG Version: 6.00 Build 0)  -->
<svg version="1.1" id="レイヤー_1" xmlns="http://www.w3.org/2000/svg" xmlns:xlink="http://www.w3.org/1999/xlink" x="0px"
	 y="0px" viewBox="0 0 77.46 77" style="enable-background:new 0 0 77.46 77;" xml:space="preserve">
<style type="text/css">
	.st0{fill:#FFFFFF;}
</style>
<polyline class="st0" points="0,77 77,0 0,0 0,77 "/>
<g>
	<path d="M17.3,27.45c2.86,2.86,3.18,6.92,0.3,9.8s-6.95,2.56-9.8-0.3c-2.86-2.86-3.18-6.92-0.3-9.8S14.44,24.6,17.3,27.45z
		 M14.09,30.66c-3.4-3.4-5.4-4.47-6.48-3.4s0,3.08,3.4,6.48c3.39,3.4,5.4,4.47,6.48,3.4S17.48,34.06,14.09,30.66z"/>
	<path d="M24.24,30.41l-0.1-0.1c1.53-1.53,0.74-2.32-0.92-3.98l-4.68-4.68c0.11,0.96,0.08,1.92-0.14,2.83l-0.14-0.03
		c0.59-2.35-0.2-5.04-1.03-6.83l1.56-1.56l7.36,7.36c1.65,1.65,2.45,2.45,3.98,0.92l0.1,0.1L24.24,30.41z"/>
	<path d="M30.9,5.33c-0.21-0.24-0.48-0.48-0.75-0.72l0.08-0.08c0.31,0.28,0.61,0.55,0.85,0.82c2.31,2.31,0.16,7.4,3.07,10.31
		c0.45,0.45,1.16,0.76,1.82,0.5c0.83,0.95,0.48,2.23-0.34,3.05c-0.99,0.99-2.48,1.29-3.54,0.23C29.34,16.68,33.66,9.42,31.45,6
		l-0.01,0.01c0.75,1.31,0.55,2.96-0.65,4.16c-1.39,1.39-3.28,2.32-4.78,3.82c-0.64,0.64-1.1,1.42-0.57,2.24l-0.11,0.08
		c-1.39-1.92-2.79-4.29-0.91-6.17C25.96,8.6,31.24,6.58,30.9,5.33z"/>
</g>
</svg>
