<?xml version="1.0" encoding="utf-8"?>
<!-- Generator: Adobe Illustrator 24.0.3, SVG Export Plug-In . SVG Version: 6.00 Build 0)  -->
<svg version="1.1" id="レイヤー_1" xmlns="http://www.w3.org/2000/svg" xmlns:xlink="http://www.w3.org/1999/xlink" x="0px"
	 y="0px" viewBox="0 0 77.46 77" style="enable-background:new 0 0 77.46 77;" xml:space="preserve">
<style type="text/css">
	.st0{fill:#FFFFFF;}
</style>
<polyline class="st0" points="0,77 77,0 0,0 0,77 "/>
<g>
	<path d="M17.06,27.69c2.86,2.86,3.18,6.92,0.3,9.8c-2.89,2.89-6.94,2.56-9.8-0.3c-2.86-2.86-3.18-6.92-0.3-9.8
		C10.15,24.5,14.21,24.83,17.06,27.69z M13.85,30.9c-3.4-3.4-5.4-4.47-6.48-3.4c-1.07,1.07,0,3.08,3.4,6.48s5.4,4.47,6.48,3.4
		C18.32,36.3,17.25,34.29,13.85,30.9z"/>
	<path d="M24.01,30.65l-0.1-0.1c1.53-1.53,0.74-2.32-0.92-3.98l-4.68-4.68c0.11,0.96,0.08,1.92-0.14,2.83l-0.14-0.03
		c0.59-2.35-0.2-5.04-1.03-6.83l1.56-1.56l7.36,7.36c1.65,1.65,2.45,2.45,3.97,0.92l0.1,0.1L24.01,30.65z"/>
	<path d="M29.62,20.65c-1.22-1.22-0.85-2.94-0.18-4.48c-1.48,0.35-2.94,0.31-4.07-0.82c-2.06-2.06-0.66-5.39,1.05-7.1
		c1.26-1.26,3.63-2.59,5.05-1.17c0.67,0.67,0.96,1.75,0.61,3.52c1.84-0.65,3.73-0.96,5.21,0.51c2.04,2.04,1.15,5.33-1.49,7.96
		C33.95,20.9,31.33,22.36,29.62,20.65z M31.92,10.65c-0.06-1.13-0.45-2.04-1.05-2.63c-1.09-1.09-2.84-1.15-4.27,0.28
		c-1.12,1.12-1.41,2.52-0.54,3.4C27.27,12.9,29.53,11.51,31.92,10.65z M29.59,16.12c-0.21,1.15,0.01,2.56,0.89,3.44
		c1.27,1.27,3.51,1.08,5.3-0.72c1.36-1.36,1.92-3.08,0.95-4.06C35.38,13.42,32.42,15.41,29.59,16.12z"/>
</g>
</svg>
