<?xml version="1.0" encoding="utf-8"?>
<!-- Generator: Adobe Illustrator 24.0.3, SVG Export Plug-In . SVG Version: 6.00 Build 0)  -->
<svg version="1.1" id="レイヤー_1" xmlns="http://www.w3.org/2000/svg" xmlns:xlink="http://www.w3.org/1999/xlink" x="0px"
	 y="0px" viewBox="0 0 77.46 77" style="enable-background:new 0 0 77.46 77;" xml:space="preserve">
<style type="text/css">
	.st0{fill:#FFFFFF;}
</style>
<polyline class="st0" points="0,77 77,0 0,0 0,77 "/>
<g>
	<path d="M16.74,28.01c2.86,2.86,3.18,6.92,0.3,9.8s-6.95,2.56-9.8-0.3c-2.86-2.86-3.18-6.92-0.3-9.8S13.88,25.15,16.74,28.01z
		 M13.53,31.22c-3.4-3.4-5.4-4.47-6.48-3.4c-1.07,1.07,0,3.08,3.4,6.48s5.4,4.47,6.48,3.4C18,36.63,16.92,34.62,13.53,31.22z"/>
	<path d="M23.68,30.97l-0.1-0.1c1.53-1.53,0.74-2.32-0.92-3.98l-4.68-4.68c0.11,0.96,0.08,1.92-0.14,2.83l-0.14-0.03
		c0.59-2.35-0.2-5.04-1.03-6.83l1.56-1.56l7.36,7.36c1.65,1.65,2.45,2.45,3.98,0.92l0.1,0.1L23.68,30.97z"/>
	<path d="M32.97,12.8c-1.05,3.9-5.49,6.08-7.99,3.58c-2.35-2.35-1.2-5.5,0.91-7.61c2.79-2.79,6.65-2.77,9.55,0.13
		c2.69,2.69,3.47,7.06,0.35,10.17c-1.24,1.24-3.97,3.13-5.83,1.27c-1.05-1.05-0.81-2.25-0.07-2.98c0.71-0.71,1.78-0.91,2.74-0.03
		c-0.14,0.45-0.06,1.02,0.44,1.51c0.81,0.81,1.98,0.74,2.7,0.01C36.99,17.63,35.49,15.46,32.97,12.8z M32.86,12.68
		c-0.42-0.42-0.85-0.88-1.32-1.34c-2.74-2.74-4.58-3.42-5.56-2.45c-0.58,0.58-1.31,1.51,1.34,4.17
		C29.92,15.65,32.04,15.88,32.86,12.68z"/>
</g>
</svg>
