<?xml version="1.0" encoding="utf-8"?>
<!-- Generator: Adobe Illustrator 24.0.3, SVG Export Plug-In . SVG Version: 6.00 Build 0)  -->
<svg version="1.1" id="レイヤー_1" xmlns="http://www.w3.org/2000/svg" xmlns:xlink="http://www.w3.org/1999/xlink" x="0px"
	 y="0px" viewBox="0 0 77.46 77" style="enable-background:new 0 0 77.46 77;" xml:space="preserve">
<style type="text/css">
	.st0{fill:#FFFFFF;}
</style>
<polyline class="st0" points="0,77 77,0 0,0 0,77 "/>
<g>
	<path d="M15.26,29.49c2.86,2.86,3.18,6.92,0.3,9.8c-2.89,2.89-6.95,2.56-9.8-0.3c-2.86-2.86-3.18-6.92-0.3-9.8
		C8.34,26.31,12.4,26.63,15.26,29.49z M12.05,32.7c-3.4-3.4-5.4-4.47-6.48-3.4c-1.08,1.08,0,3.08,3.4,6.48
		c3.4,3.4,5.4,4.47,6.48,3.4C16.52,38.1,15.44,36.1,12.05,32.7z"/>
	<path d="M21.57,31.61c0.21,0.24,0.47,0.5,0.75,0.72l-0.1,0.1c-2.91-2.49-2.21-5.43-1.75-8.06c0.33-1.88,0.16-3.86-1.32-5.33
		c-0.88-0.88-2.09-1.22-3.01-0.3c-0.88,0.88-0.85,1.98-0.04,2.79c0.48,0.48,1.05,0.57,1.5,0.42c0.88,0.96,0.68,2.04-0.03,2.74
		c-0.74,0.74-1.94,0.98-2.98-0.07c-1.95-1.95,0.27-4.82,1.46-6.01c2.98-2.98,5.19-3.44,6.79-1.84c1.85,1.85,0.82,4.44-0.55,6.69
		c-1.05,1.73-2.22,3.44-1.97,5.45c-0.03-0.91,0.37-1.7,1.03-2.36c1.39-1.39,3.73-2.01,5.23-3.51c0.64-0.64,1.1-1.41,0.57-2.23
		l0.11-0.08c1.39,1.92,2.69,4.19,0.81,6.07C26.5,28.35,21.23,30.37,21.57,31.61z"/>
	<path d="M37.12,7.63c2.86,2.86,3.18,6.92,0.3,9.8c-2.89,2.89-6.95,2.56-9.8-0.3c-2.86-2.86-3.18-6.92-0.3-9.8
		S34.27,4.77,37.12,7.63z M33.91,10.84c-3.4-3.4-5.4-4.47-6.48-3.4s0,3.08,3.4,6.48s5.4,4.47,6.48,3.4S37.31,14.23,33.91,10.84z"/>
</g>
</svg>
