<?xml version="1.0" encoding="utf-8"?>
<!-- Generator: Adobe Illustrator 24.0.3, SVG Export Plug-In . SVG Version: 6.00 Build 0)  -->
<svg version="1.1" id="レイヤー_1" xmlns="http://www.w3.org/2000/svg" xmlns:xlink="http://www.w3.org/1999/xlink" x="0px"
	 y="0px" viewBox="0 0 77 77" style="enable-background:new 0 0 77 77;" xml:space="preserve">
<style type="text/css">
	.st0{fill:#FFFFFF;}
</style>
<g>
	<polyline class="st0" points="0,77 77,0 0,0 0,77 	"/>
	<g>
		<path d="M15.27,29.48c2.86,2.86,3.18,6.92,0.3,9.8c-2.89,2.89-6.95,2.56-9.8-0.3s-3.18-6.92-0.3-9.8
			C8.35,26.29,12.41,26.62,15.27,29.48z M12.06,32.69c-3.39-3.4-5.4-4.47-6.48-3.4c-1.08,1.08,0,3.08,3.4,6.48
			c3.39,3.4,5.4,4.47,6.48,3.4C16.53,38.09,15.45,36.08,12.06,32.69z"/>
		<path d="M26.89,17.85c2.86,2.86,3.18,6.92,0.3,9.8s-6.95,2.56-9.8-0.3c-2.86-2.86-3.18-6.92-0.3-9.8S24.04,14.99,26.89,17.85z
			 M23.68,21.06c-3.39-3.4-5.4-4.47-6.48-3.4s0,3.08,3.39,6.48c3.4,3.4,5.4,4.47,6.48,3.4S27.08,24.46,23.68,21.06z"/>
		<path d="M30.81,13.03l-0.11-0.11l0.4-0.4c1.32-1.32,0.75-3.13-0.62-4.5c-1.16-1.16-2.26-1.36-3.15-0.47
			c-0.92,0.92-0.59,1.98-0.06,2.52c0.38,0.38,0.9,0.54,1.36,0.37c0.76,0.85,0.57,1.81-0.07,2.45c-0.68,0.68-1.74,0.92-2.66,0
			c-1.73-1.73,0.03-4.16,1.39-5.52c1.99-1.99,4.51-3.75,6.27-1.99c1.95,1.95-0.13,4.71-1.68,6.44l0.03,0.03
			c1.95-1.95,5.15-4.27,7.47-1.95c1.83,1.83,1.09,4.51-2.09,7.69c-1.19,1.19-4.09,3.44-6.04,1.49c-1.05-1.05-0.81-2.25-0.07-2.98
			c0.71-0.71,1.78-0.91,2.74-0.03c-0.14,0.45-0.06,1.02,0.42,1.5c0.81,0.81,2.02,0.72,2.9-0.16c1.22-1.22,0.48-3.03-0.71-4.22
			c-1.33-1.33-3.62-2.23-5.23-0.62L30.81,13.03z"/>
	</g>
</g>
</svg>
