<?xml version="1.0" encoding="utf-8"?>
<!-- Generator: Adobe Illustrator 24.0.3, SVG Export Plug-In . SVG Version: 6.00 Build 0)  -->
<svg version="1.1" id="レイヤー_1" xmlns="http://www.w3.org/2000/svg" xmlns:xlink="http://www.w3.org/1999/xlink" x="0px"
	 y="0px" viewBox="0 0 77 77" style="enable-background:new 0 0 77 77;" xml:space="preserve">
<style type="text/css">
	.st0{fill:#FFFFFF;}
</style>
<g>
	<polyline class="st0" points="0,77 77,0 0,0 0,77 	"/>
	<g>
		<path d="M15.37,29.38c2.86,2.86,3.18,6.92,0.3,9.8c-2.89,2.89-6.95,2.56-9.8-0.3c-2.86-2.86-3.18-6.92-0.3-9.8
			S12.51,26.52,15.37,29.38z M12.16,32.59c-3.4-3.4-5.4-4.47-6.48-3.4c-1.07,1.07,0,3.08,3.4,6.48c3.4,3.4,5.4,4.47,6.48,3.4
			C16.63,37.99,15.55,35.98,12.16,32.59z"/>
		<path d="M26.99,17.75c2.86,2.86,3.18,6.92,0.3,9.8c-2.89,2.89-6.95,2.56-9.8-0.3c-2.86-2.86-3.18-6.92-0.3-9.8
			C20.08,14.57,24.14,14.89,26.99,17.75z M23.78,20.96c-3.39-3.4-5.4-4.47-6.48-3.4c-1.08,1.08,0,3.08,3.4,6.48
			c3.39,3.4,5.4,4.47,6.48,3.4C28.25,26.37,27.18,24.36,23.78,20.96z"/>
		<path d="M30.27,18.49c0.92-1.63,1.67-6.51,0.21-7.96c-0.69-0.69-1.54-0.47-2.07,0.06c-0.45,0.45-0.71,1.1-0.44,1.77
			c-0.96,0.88-2.04,0.68-2.75-0.03c-0.74-0.74-0.99-1.92,0.1-3.01c1.6-1.6,3.59-0.59,5.25,1.06c1.5,1.5,2.76,3.55,3.1,4.65
			l1.13-1.13L30.4,9.48c-0.18-1.43-0.66-2.81-1.16-3.88l1.56-1.56l6.93,6.93l1.54-1.54l0.14,0.14l-1.54,1.54l0.28,0.28
			c1.66,1.65,2.45,2.45,3.98,0.92l0.1,0.1l-5.97,5.97l-0.1-0.1c1.53-1.53,0.74-2.32-0.92-3.97l-0.28-0.28l-4.57,4.57L30.27,18.49z"
			/>
	</g>
</g>
</svg>
