<?xml version="1.0" encoding="utf-8"?>
<!-- Generator: Adobe Illustrator 24.0.3, SVG Export Plug-In . SVG Version: 6.00 Build 0)  -->
<svg version="1.1" id="レイヤー_1" xmlns="http://www.w3.org/2000/svg" xmlns:xlink="http://www.w3.org/1999/xlink" x="0px"
	 y="0px" viewBox="0 0 77 77" style="enable-background:new 0 0 77 77;" xml:space="preserve">
<style type="text/css">
	.st0{fill:#FFFFFF;}
</style>
<g>
	<polyline class="st0" points="0,77 77,0 0,0 0,77 	"/>
	<g>
		<path d="M15.1,29.64c2.86,2.86,3.18,6.92,0.3,9.8c-2.89,2.89-6.95,2.56-9.8-0.3s-3.18-6.92-0.3-9.8S12.24,26.79,15.1,29.64z
			 M11.89,32.86c-3.4-3.4-5.4-4.47-6.48-3.4s0,3.08,3.4,6.48c3.39,3.4,5.4,4.47,6.48,3.4S15.28,36.25,11.89,32.86z"/>
		<path d="M26.72,18.02c2.86,2.86,3.18,6.92,0.3,9.8c-2.88,2.89-6.94,2.56-9.8-0.3c-2.86-2.86-3.18-6.92-0.3-9.8
			C19.81,14.84,23.87,15.16,26.72,18.02z M23.51,21.23c-3.39-3.4-5.4-4.47-6.48-3.4c-1.08,1.07,0,3.08,3.4,6.48
			c3.39,3.4,5.4,4.47,6.48,3.4C27.98,26.63,26.91,24.63,23.51,21.23z"/>
		<path d="M30.98,12.75c1.05-3.88,5.5-6.07,7.99-3.58c2.15,2.15,1.2,5.5-0.91,7.61c-2.86,2.86-6.93,2.55-9.79-0.31
			c-2.73-2.73-3.14-6.96-0.11-9.99c1.24-1.24,3.97-3.13,5.83-1.27c1.05,1.05,0.81,2.25,0.07,2.98c-0.71,0.71-1.78,0.91-2.74,0.03
			c0.14-0.45,0.06-1.02-0.44-1.51c-0.81-0.81-1.98-0.74-2.7-0.01C27.07,7.8,27.88,9.56,30.98,12.75z M31.11,12.87l0.38,0.38
			c3.39,3.4,5.4,4.47,6.48,3.4c0.61-0.61,1.29-1.51-1.88-4.68C33.55,9.44,31.86,10.14,31.11,12.87z"/>
	</g>
</g>
</svg>
