<?xml version="1.0" encoding="utf-8"?>
<!-- Generator: Adobe Illustrator 24.0.3, SVG Export Plug-In . SVG Version: 6.00 Build 0)  -->
<svg version="1.1" id="レイヤー_1" xmlns="http://www.w3.org/2000/svg" xmlns:xlink="http://www.w3.org/1999/xlink" x="0px"
	 y="0px" viewBox="0 0 77 77" style="enable-background:new 0 0 77 77;" xml:space="preserve">
<style type="text/css">
	.st0{fill:#FFFFFF;}
</style>
<g>
	<polyline class="st0" points="0,77 77,0 0,0 0,77 	"/>
	<g>
		<path d="M15.67,29.07c2.86,2.86,3.18,6.92,0.3,9.8s-6.95,2.56-9.8-0.3c-2.86-2.86-3.18-6.92-0.3-9.8S12.82,26.22,15.67,29.07z
			 M12.46,32.28c-3.39-3.4-5.4-4.47-6.48-3.4s0,3.08,3.39,6.48c3.4,3.4,5.4,4.47,6.48,3.4C16.93,37.69,15.86,35.68,12.46,32.28z"/>
		<path d="M27.3,17.45c2.86,2.86,3.18,6.92,0.3,9.8s-6.95,2.56-9.8-0.3c-2.86-2.86-3.18-6.92-0.3-9.8S24.44,14.59,27.3,17.45z
			 M24.09,20.66c-3.4-3.4-5.4-4.47-6.48-3.4c-1.07,1.07,0,3.08,3.4,6.48c3.4,3.4,5.4,4.47,6.48,3.4
			C28.56,26.06,27.48,24.05,24.09,20.66z"/>
		<path d="M32.51,3.72c-0.21-0.24-0.48-0.48-0.75-0.72l0.08-0.08c0.31,0.28,0.61,0.55,0.85,0.82c2.31,2.31,0.16,7.4,3.07,10.31
			c0.45,0.45,1.16,0.76,1.82,0.5c0.83,0.95,0.48,2.23-0.34,3.05c-0.99,0.99-2.47,1.29-3.54,0.23c-2.76-2.76,1.56-10.02-0.65-13.44
			l-0.01,0.01c0.75,1.31,0.55,2.96-0.65,4.16c-1.39,1.39-3.28,2.32-4.78,3.82c-0.64,0.64-1.1,1.41-0.57,2.24l-0.11,0.08
			c-1.39-1.92-2.79-4.29-0.91-6.17C27.58,6.98,32.85,4.96,32.51,3.72z"/>
	</g>
</g>
</svg>
