<?xml version="1.0" encoding="utf-8"?>
<!-- Generator: Adobe Illustrator 24.0.3, SVG Export Plug-In . SVG Version: 6.00 Build 0)  -->
<svg version="1.1" id="レイヤー_1" xmlns="http://www.w3.org/2000/svg" xmlns:xlink="http://www.w3.org/1999/xlink" x="0px"
	 y="0px" viewBox="0 0 77 77" style="enable-background:new 0 0 77 77;" xml:space="preserve">
<style type="text/css">
	.st0{fill:#FFFFFF;}
</style>
<g>
	<polyline class="st0" points="0,77 77,0 0,0 0,77 	"/>
	<g>
		<path d="M15.44,29.31c2.86,2.86,3.18,6.92,0.3,9.8s-6.95,2.56-9.8-0.3c-2.86-2.86-3.18-6.92-0.3-9.8S12.58,26.45,15.44,29.31z
			 M12.23,32.52c-3.39-3.4-5.4-4.47-6.48-3.4s0,3.08,3.4,6.48c3.39,3.4,5.4,4.47,6.48,3.4S15.62,35.91,12.23,32.52z"/>
		<path d="M27.06,17.68c2.86,2.86,3.18,6.92,0.3,9.8c-2.89,2.89-6.95,2.56-9.8-0.3c-2.86-2.86-3.18-6.92-0.3-9.8
			C20.15,14.5,24.21,14.82,27.06,17.68z M23.85,20.89c-3.4-3.4-5.4-4.47-6.48-3.4c-1.08,1.08,0,3.08,3.39,6.48
			c3.4,3.4,5.4,4.47,6.48,3.4C28.32,26.3,27.25,24.29,23.85,20.89z"/>
		<path d="M31.23,19.03c-1.22-1.22-0.85-2.94-0.18-4.48c-1.49,0.35-2.94,0.31-4.07-0.82c-2.06-2.06-0.66-5.39,1.05-7.1
			c1.26-1.26,3.63-2.59,5.05-1.17c0.67,0.67,0.96,1.75,0.61,3.52c1.84-0.65,3.73-0.96,5.21,0.51c2.04,2.04,1.15,5.33-1.48,7.96
			C35.56,19.28,32.95,20.74,31.23,19.03z M33.54,9.03c-0.06-1.13-0.45-2.04-1.05-2.63c-1.09-1.09-2.84-1.15-4.27,0.28
			c-1.12,1.12-1.41,2.52-0.54,3.4C28.89,11.28,31.15,9.89,33.54,9.03z M31.21,14.5c-0.21,1.15,0.01,2.56,0.89,3.44
			c1.27,1.27,3.51,1.08,5.3-0.72c1.36-1.36,1.92-3.08,0.95-4.06C36.99,11.8,34.03,13.79,31.21,14.5z"/>
	</g>
</g>
</svg>
