<?xml version="1.0" encoding="utf-8"?>
<!-- Generator: Adobe Illustrator 24.0.3, SVG Export Plug-In . SVG Version: 6.00 Build 0)  -->
<svg version="1.1" id="レイヤー_1" xmlns="http://www.w3.org/2000/svg" xmlns:xlink="http://www.w3.org/1999/xlink" x="0px"
	 y="0px" viewBox="0 0 77 77" style="enable-background:new 0 0 77 77;" xml:space="preserve">
<style type="text/css">
	.st0{fill:#FFFFFF;}
</style>
<g>
	<polyline class="st0" points="0,77 77,0 0,0 0,77 	"/>
	<g>
		<path d="M15.11,29.63c2.86,2.86,3.18,6.92,0.3,9.8s-6.95,2.56-9.8-0.3c-2.86-2.86-3.18-6.92-0.3-9.8S12.26,26.77,15.11,29.63z
			 M11.9,32.84c-3.39-3.4-5.4-4.47-6.48-3.4s0,3.08,3.39,6.48c3.4,3.4,5.4,4.47,6.48,3.4S15.3,36.24,11.9,32.84z"/>
		<path d="M26.74,18.01c2.86,2.86,3.18,6.92,0.3,9.8c-2.89,2.89-6.95,2.56-9.8-0.3c-2.86-2.86-3.18-6.92-0.3-9.8
			C19.82,14.82,23.88,15.15,26.74,18.01z M23.53,21.22c-3.4-3.4-5.4-4.47-6.48-3.4c-1.07,1.07,0,3.08,3.4,6.48
			c3.4,3.4,5.4,4.47,6.48,3.4C28,26.62,26.92,24.61,23.53,21.22z"/>
		<path d="M34.59,11.18c-1.05,3.9-5.49,6.08-7.99,3.58c-2.35-2.35-1.2-5.5,0.91-7.61c2.79-2.79,6.65-2.77,9.55,0.13
			c2.69,2.69,3.46,7.06,0.35,10.17c-1.25,1.25-3.97,3.13-5.83,1.27c-1.05-1.05-0.81-2.25-0.07-2.98c0.71-0.71,1.78-0.91,2.74-0.03
			c-0.14,0.45-0.06,1.02,0.44,1.51c0.81,0.81,1.98,0.74,2.7,0.01C38.6,16.01,37.1,13.84,34.59,11.18z M34.47,11.06
			c-0.42-0.42-0.85-0.88-1.32-1.34c-2.74-2.74-4.58-3.42-5.56-2.45c-0.58,0.58-1.31,1.51,1.34,4.17
			C31.53,14.03,33.65,14.26,34.47,11.06z"/>
	</g>
</g>
</svg>
