<?xml version="1.0" encoding="utf-8"?>
<!-- Generator: Adobe Illustrator 24.0.3, SVG Export Plug-In . SVG Version: 6.00 Build 0)  -->
<svg version="1.1" id="レイヤー_1" xmlns="http://www.w3.org/2000/svg" xmlns:xlink="http://www.w3.org/1999/xlink" x="0px"
	 y="0px" viewBox="0 0 60 60" style="enable-background:new 0 0 60 60;" xml:space="preserve">
<style type="text/css">
	.st0{clip-path:url(#SVGID_2_);fill:#FFFFFF;}
	.st1{clip-path:url(#SVGID_2_);fill:#E76080;}
	.st2{clip-path:url(#SVGID_2_);fill:#E76180;}
	.st3{clip-path:url(#SVGID_4_);}
	.st4{clip-path:url(#SVGID_6_);fill:none;stroke:#787878;stroke-width:1.79;stroke-miterlimit:10;}
	.st5{fill:#969696;}
	.st6{fill:#FFFFFF;}
	.st7{clip-path:url(#SVGID_8_);fill:#FFFFFF;}
	.st8{clip-path:url(#SVGID_8_);fill:#E76080;}
	.st9{clip-path:url(#SVGID_8_);fill:#E76180;}
	.st10{clip-path:url(#SVGID_10_);}
	.st11{clip-path:url(#SVGID_12_);fill:none;stroke:#787878;stroke-width:1.79;stroke-miterlimit:10;}
	.st12{clip-path:url(#SVGID_14_);fill:#FFFFFF;}
	.st13{clip-path:url(#SVGID_14_);fill:#E76080;}
	.st14{clip-path:url(#SVGID_14_);fill:#E76180;}
	.st15{clip-path:url(#SVGID_16_);}
	.st16{clip-path:url(#SVGID_18_);fill:none;stroke:#787878;stroke-width:1.79;stroke-miterlimit:10;}
</style>
<g>
	<defs>
		<rect id="SVGID_1_" x="-481.63" y="-1995.04" width="1024" height="4050"/>
	</defs>
	<clipPath id="SVGID_2_">
		<use xlink:href="#SVGID_1_"  style="overflow:visible;"/>
	</clipPath>
	<path class="st0" d="M39.69,1291.94h0.08c0.49,0,0.97-0.11,0.97-0.7c0-0.38-0.27-0.6-0.64-0.6c-0.33,0-0.56,0.26-0.55,0.58h-1.21
		c-0.01-0.96,0.8-1.76,1.76-1.76c0.99,0,1.85,0.79,1.85,1.8c0,0.48-0.17,0.93-0.58,1.2c0.73,0.26,1.07,1.04,1.07,1.8
		c0,1.31-1.06,2.23-2.35,2.23c-1.19,0-2.21-0.97-2.24-2.16h1.22c0.03,0.57,0.53,0.98,1.1,0.98c0.59,0,1.06-0.48,1.06-1.06
		c0-0.4-0.17-0.73-0.47-0.93c-0.29-0.19-0.61-0.22-0.94-0.22h-0.12V1291.94z"/>
	<rect x="-133.87" y="1286.87" class="st1" width="12.17" height="12.16"/>
	<path class="st0" d="M-129.96,1295.17l2.33-2.16c0.41-0.38,0.82-0.78,0.82-1.39c0-0.57-0.4-0.98-0.97-0.98
		c-0.72,0-1.09,0.6-1.04,1.27h-1.21v-0.25c0-1.2,0.98-2.21,2.18-2.21c1.27,0,2.25,0.95,2.25,2.23c0,0.55-0.2,1.02-0.53,1.45
		l-0.85,0.89l-1.29,1.15h2.67v1.15h-4.36V1295.17z"/>
	<rect x="-301.92" y="1286.87" class="st1" width="12.16" height="12.16"/>
	<polygon class="st0" points="-296.15,1290.73 -297,1290.73 -297,1289.58 -294.93,1289.58 -294.93,1296.32 -296.15,1296.32 	"/>
	<rect x="-481.63" y="1522.96" class="st2" width="1024" height="200"/>
</g>
<g>
	<defs>
		<rect id="SVGID_3_" x="-481.63" y="-1995.04" width="1024" height="4050"/>
	</defs>
	<clipPath id="SVGID_4_">
		<use xlink:href="#SVGID_3_"  style="overflow:visible;"/>
	</clipPath>
	<path class="st3" d="M-123.11-1721.58c0,5.14,0,7.61,4.75,7.61v0.31h-18.55v-0.31c4.75,0,4.75-2.46,4.75-7.61v-4.57l-7.61-12.62
		c-2.29-3.74-3.43-5.36-6.51-5.36v-0.31h18.78v0.31c-4.88,0-2.51,4.4-1.19,6.73l5.32,9.5l2.24-4.27c2.9-5.54,6.2-11.96-0.09-11.96
		v-0.31h12.84v0.31c-4.88,0-9.01,5.67-12.35,12.09l-2.38,4.53V-1721.58z"/>
	<path class="st3" d="M-72.55-1712.17l-24.49-27.48v12.93c0,6.02,0.18,12.75,6.86,12.75v0.31h-14.47v-0.31
		c6.82,0,7.12-6.73,7.12-13.59v-8.35c0-4.88-0.48-8.22-7.12-8.22v-0.31h15.08l16.53,18.78v-5.72c0-6.02-0.18-12.75-6.86-12.75v-0.31
		h14.47v0.31c-6.82,0-7.12,6.73-7.12,13.59V-1712.17z"/>
	<path class="st3" d="M-31.71-1724.13c0,7.52-3.61,10.77-11.48,10.77c-8.71,0-13.98-1.98-13.98-11.26v-11.92
		c0-5.32,0-7.61-4.75-7.61v-0.31h17.63v0.31c-3.39,0-3.82,1.98-3.82,7.61v10.47c0,5.54,0.4,12.09,6.64,12.09
		c5.67,0,9.28-3.08,9.28-10.16v-7.25c0-6.02-0.18-12.75-6.86-12.75v-0.31h14.47v0.31c-6.82,0-7.12,6.73-7.12,13.59V-1724.13z"/>
	<path class="st3" d="M-8.63-1713.97c4.75,0,4.75-2.46,4.75-7.61v-14.95c0-5.32,0-7.61-4.75-7.61v-0.31H7.59
		c9.63,0,14.73,2.55,14.73,8.93c0,7.52-9.41,9.01-15.79,9.01H5.17v4.93c0,5.32,0.13,7.61,5.36,7.61v0.31H-8.63V-1713.97z
		 M6.36-1726.86c4.57,0,6.29-2.64,6.29-8.66c0-5.98-1.72-8.62-6.2-8.62H5.17v17.28H6.36z"/>
	<path class="st3" d="M55.78-1733.85h-0.44c-0.75-6.64-3.74-10.2-11.3-10.2h-4.4v14.51c4.88,0,8.57-2.2,8.84-6.9h0.31l-0.75,14.2
		h-0.31c0.22-4.27-3.21-6.99-8.09-6.99v11.12c0,3.12,0.66,4.05,2.64,4.05c8.79,0,13.32-4.93,14.69-12.71h0.44l-2.11,13.1H25.83
		v-0.31c4.75,0,4.75-2.46,4.75-7.61v-14.95c0-5.32,0-7.61-4.75-7.61v-0.31h28.84L55.78-1733.85z"/>
	<path class="st3" d="M96.4-1729.06c0,9.98-8.22,15.7-16.75,15.7c-8.53,0-16.75-5.72-16.75-15.7c0-9.36,7.52-15.7,16.75-15.7
		C88.88-1744.75,96.4-1738.42,96.4-1729.06 M86.42-1729.06c0-5.01,0-15.34-6.77-15.34c-6.77,0-6.77,10.33-6.77,15.34
		c0,5.15,0,15.35,6.77,15.35C86.42-1713.71,86.42-1723.91,86.42-1729.06"/>
	<path class="st3" d="M101.23-1713.97c4.75,0,4.75-2.46,4.75-7.61v-14.95c0-5.32,0-7.61-4.75-7.61v-0.31h16.23
		c9.63,0,14.73,2.55,14.73,8.93c0,7.52-9.41,9.01-15.79,9.01h-1.36v4.93c0,5.32,0.13,7.61,5.36,7.61v0.31h-19.17V-1713.97z
		 M116.23-1726.86c4.57,0,6.29-2.64,6.29-8.66c0-5.98-1.72-8.62-6.2-8.62h-1.27v17.28H116.23z"/>
	<path class="st3" d="M156.94-1744.14c-5.98,0-6.11,1.72-6.11,7.61v17.1c0,4.35,0.26,5.41,3.52,5.41c7.74,0,12.09-5.89,13.76-13.46
		h0.31l-2.77,13.81h-28.62v-0.31c4.75,0,4.75-2.46,4.75-7.61v-14.95c0-5.32,0-7.61-4.75-7.61v-0.31h19.92V-1744.14z"/>
	<path class="st3" d="M202.09-1733.85h-0.44c-0.75-6.64-3.74-10.2-11.3-10.2h-4.4v14.51c4.88,0,8.57-2.2,8.84-6.9h0.31l-0.75,14.2
		h-0.31c0.22-4.27-3.21-6.99-8.09-6.99v11.12c0,3.12,0.66,4.05,2.64,4.05c8.79,0,13.32-4.93,14.69-12.71h0.44l-2.11,13.1h-29.46
		v-0.31c4.75,0,4.75-2.46,4.75-7.61v-14.95c0-5.32,0-7.61-4.75-7.61v-0.31h28.84L202.09-1733.85z"/>
</g>
<g>
	<defs>
		<rect id="SVGID_5_" x="-481.63" y="-1995.04" width="1024" height="4050"/>
	</defs>
	<clipPath id="SVGID_6_">
		<use xlink:href="#SVGID_5_"  style="overflow:visible;"/>
	</clipPath>
	<polyline class="st4" points="-288.87,1775.59 -300.48,1784.86 -288.87,1794.13 	"/>
</g>
<rect x="-481.63" y="-1995.04" class="st5" width="60" height="60"/>
<rect x="-452.63" y="-1978.5" transform="matrix(0.7071 -0.7071 0.7071 0.7071 1257.201 -894.8722)" class="st6" width="2" height="26.92"/>
<rect x="-465.08" y="-1966.04" transform="matrix(0.7071 -0.7071 0.7071 0.7071 1257.2146 -894.8944)" class="st6" width="26.92" height="2"/>
<g>
	<defs>
		<rect id="SVGID_7_" x="-481.63" y="-1995.04" width="1024" height="4050"/>
	</defs>
	<clipPath id="SVGID_8_">
		<use xlink:href="#SVGID_7_"  style="overflow:visible;"/>
	</clipPath>
	<path class="st7" d="M39.69,1291.94h0.08c0.49,0,0.97-0.11,0.97-0.7c0-0.38-0.27-0.6-0.64-0.6c-0.33,0-0.56,0.26-0.55,0.58h-1.21
		c-0.01-0.96,0.8-1.76,1.76-1.76c0.99,0,1.85,0.79,1.85,1.8c0,0.48-0.17,0.93-0.58,1.2c0.73,0.26,1.07,1.04,1.07,1.8
		c0,1.31-1.06,2.23-2.35,2.23c-1.19,0-2.21-0.97-2.24-2.16h1.22c0.03,0.57,0.53,0.98,1.1,0.98c0.59,0,1.06-0.48,1.06-1.06
		c0-0.4-0.17-0.73-0.47-0.93c-0.29-0.19-0.61-0.22-0.94-0.22h-0.12V1291.94z"/>
	<rect x="-133.87" y="1286.87" class="st8" width="12.17" height="12.16"/>
	<path class="st7" d="M-129.96,1295.17l2.33-2.16c0.41-0.38,0.82-0.78,0.82-1.39c0-0.57-0.4-0.98-0.97-0.98
		c-0.72,0-1.09,0.6-1.04,1.27h-1.21v-0.25c0-1.2,0.98-2.21,2.18-2.21c1.27,0,2.25,0.95,2.25,2.23c0,0.55-0.2,1.02-0.53,1.45
		l-0.85,0.89l-1.29,1.15h2.67v1.15h-4.36V1295.17z"/>
	<rect x="-301.92" y="1286.87" class="st8" width="12.16" height="12.16"/>
	<polygon class="st7" points="-296.15,1290.73 -297,1290.73 -297,1289.58 -294.93,1289.58 -294.93,1296.32 -296.15,1296.32 	"/>
	<rect x="-481.63" y="1522.96" class="st9" width="1024" height="200"/>
</g>
<g>
	<defs>
		<rect id="SVGID_9_" x="-481.63" y="-1995.04" width="1024" height="4050"/>
	</defs>
	<clipPath id="SVGID_10_">
		<use xlink:href="#SVGID_9_"  style="overflow:visible;"/>
	</clipPath>
	<path class="st10" d="M-123.11-1721.58c0,5.14,0,7.61,4.75,7.61v0.31h-18.55v-0.31c4.75,0,4.75-2.46,4.75-7.61v-4.57l-7.61-12.62
		c-2.29-3.74-3.43-5.36-6.51-5.36v-0.31h18.78v0.31c-4.88,0-2.51,4.4-1.19,6.73l5.32,9.5l2.24-4.27c2.9-5.54,6.2-11.96-0.09-11.96
		v-0.31h12.84v0.31c-4.88,0-9.01,5.67-12.35,12.09l-2.38,4.53V-1721.58z"/>
	<path class="st10" d="M-72.55-1712.17l-24.49-27.48v12.93c0,6.02,0.18,12.75,6.86,12.75v0.31h-14.47v-0.31
		c6.82,0,7.12-6.73,7.12-13.59v-8.35c0-4.88-0.48-8.22-7.12-8.22v-0.31h15.08l16.53,18.78v-5.72c0-6.02-0.18-12.75-6.86-12.75v-0.31
		h14.47v0.31c-6.82,0-7.12,6.73-7.12,13.59V-1712.17z"/>
	<path class="st10" d="M-31.71-1724.13c0,7.52-3.61,10.77-11.48,10.77c-8.71,0-13.98-1.98-13.98-11.26v-11.92
		c0-5.32,0-7.61-4.75-7.61v-0.31h17.63v0.31c-3.39,0-3.82,1.98-3.82,7.61v10.47c0,5.54,0.4,12.09,6.64,12.09
		c5.67,0,9.28-3.08,9.28-10.16v-7.25c0-6.02-0.18-12.75-6.86-12.75v-0.31h14.47v0.31c-6.82,0-7.12,6.73-7.12,13.59V-1724.13z"/>
	<path class="st10" d="M-8.63-1713.97c4.75,0,4.75-2.46,4.75-7.61v-14.95c0-5.32,0-7.61-4.75-7.61v-0.31H7.59
		c9.63,0,14.73,2.55,14.73,8.93c0,7.52-9.41,9.01-15.79,9.01H5.17v4.93c0,5.32,0.13,7.61,5.36,7.61v0.31H-8.63V-1713.97z
		 M6.36-1726.86c4.57,0,6.29-2.64,6.29-8.66c0-5.98-1.72-8.62-6.2-8.62H5.17v17.28H6.36z"/>
	<path class="st10" d="M55.78-1733.85h-0.44c-0.75-6.64-3.74-10.2-11.3-10.2h-4.4v14.51c4.88,0,8.57-2.2,8.84-6.9h0.31l-0.75,14.2
		h-0.31c0.22-4.27-3.21-6.99-8.09-6.99v11.12c0,3.12,0.66,4.05,2.64,4.05c8.79,0,13.32-4.93,14.69-12.71h0.44l-2.11,13.1H25.83
		v-0.31c4.75,0,4.75-2.46,4.75-7.61v-14.95c0-5.32,0-7.61-4.75-7.61v-0.31h28.84L55.78-1733.85z"/>
	<path class="st10" d="M96.4-1729.06c0,9.98-8.22,15.7-16.75,15.7c-8.53,0-16.75-5.72-16.75-15.7c0-9.36,7.52-15.7,16.75-15.7
		C88.88-1744.75,96.4-1738.42,96.4-1729.06 M86.42-1729.06c0-5.01,0-15.34-6.77-15.34c-6.77,0-6.77,10.33-6.77,15.34
		c0,5.15,0,15.35,6.77,15.35C86.42-1713.71,86.42-1723.91,86.42-1729.06"/>
	<path class="st10" d="M101.23-1713.97c4.75,0,4.75-2.46,4.75-7.61v-14.95c0-5.32,0-7.61-4.75-7.61v-0.31h16.23
		c9.63,0,14.73,2.55,14.73,8.93c0,7.52-9.41,9.01-15.79,9.01h-1.36v4.93c0,5.32,0.13,7.61,5.36,7.61v0.31h-19.17V-1713.97z
		 M116.23-1726.86c4.57,0,6.29-2.64,6.29-8.66c0-5.98-1.72-8.62-6.2-8.62h-1.27v17.28H116.23z"/>
	<path class="st10" d="M156.94-1744.14c-5.98,0-6.11,1.72-6.11,7.61v17.1c0,4.35,0.26,5.41,3.52,5.41c7.74,0,12.09-5.89,13.76-13.46
		h0.31l-2.77,13.81h-28.62v-0.31c4.75,0,4.75-2.46,4.75-7.61v-14.95c0-5.32,0-7.61-4.75-7.61v-0.31h19.92V-1744.14z"/>
	<path class="st10" d="M202.09-1733.85h-0.44c-0.75-6.64-3.74-10.2-11.3-10.2h-4.4v14.51c4.88,0,8.57-2.2,8.84-6.9h0.31l-0.75,14.2
		h-0.31c0.22-4.27-3.21-6.99-8.09-6.99v11.12c0,3.12,0.66,4.05,2.64,4.05c8.79,0,13.32-4.93,14.69-12.71h0.44l-2.11,13.1h-29.46
		v-0.31c4.75,0,4.75-2.46,4.75-7.61v-14.95c0-5.32,0-7.61-4.75-7.61v-0.31h28.84L202.09-1733.85z"/>
</g>
<g>
	<defs>
		<rect id="SVGID_11_" x="-481.63" y="-1995.04" width="1024" height="4050"/>
	</defs>
	<clipPath id="SVGID_12_">
		<use xlink:href="#SVGID_11_"  style="overflow:visible;"/>
	</clipPath>
	<polyline class="st11" points="-288.87,1775.59 -300.48,1784.86 -288.87,1794.13 	"/>
</g>
<rect x="-481.63" y="-1995.04" class="st5" width="60" height="60"/>
<rect x="-452.63" y="-1978.5" transform="matrix(0.7071 -0.7071 0.7071 0.7071 1257.201 -894.8722)" class="st6" width="2" height="26.92"/>
<rect x="-465.08" y="-1966.04" transform="matrix(0.7071 -0.7071 0.7071 0.7071 1257.2146 -894.8944)" class="st6" width="26.92" height="2"/>
<g>
	<defs>
		<rect id="SVGID_13_" x="-481.63" y="-1995.04" width="1024" height="4050"/>
	</defs>
	<clipPath id="SVGID_14_">
		<use xlink:href="#SVGID_13_"  style="overflow:visible;"/>
	</clipPath>
	<path class="st12" d="M39.69,1291.94h0.08c0.49,0,0.97-0.11,0.97-0.7c0-0.38-0.27-0.6-0.64-0.6c-0.33,0-0.56,0.26-0.55,0.58h-1.21
		c-0.01-0.96,0.8-1.76,1.76-1.76c0.99,0,1.85,0.79,1.85,1.8c0,0.48-0.17,0.93-0.58,1.2c0.73,0.26,1.07,1.04,1.07,1.8
		c0,1.31-1.06,2.23-2.35,2.23c-1.19,0-2.21-0.97-2.24-2.16h1.22c0.03,0.57,0.53,0.98,1.1,0.98c0.59,0,1.06-0.48,1.06-1.06
		c0-0.4-0.17-0.73-0.47-0.93c-0.29-0.19-0.61-0.22-0.94-0.22h-0.12V1291.94z"/>
	<rect x="-133.87" y="1286.87" class="st13" width="12.17" height="12.16"/>
	<path class="st12" d="M-129.96,1295.17l2.33-2.16c0.41-0.38,0.82-0.78,0.82-1.39c0-0.57-0.4-0.98-0.97-0.98
		c-0.72,0-1.09,0.6-1.04,1.27h-1.21v-0.25c0-1.2,0.98-2.21,2.18-2.21c1.27,0,2.25,0.95,2.25,2.23c0,0.55-0.2,1.02-0.53,1.45
		l-0.85,0.89l-1.29,1.15h2.67v1.15h-4.36V1295.17z"/>
	<rect x="-301.92" y="1286.87" class="st13" width="12.16" height="12.16"/>
	<polygon class="st12" points="-296.15,1290.73 -297,1290.73 -297,1289.58 -294.93,1289.58 -294.93,1296.32 -296.15,1296.32 	"/>
	<rect x="-481.63" y="1522.96" class="st14" width="1024" height="200"/>
</g>
<g>
	<defs>
		<rect id="SVGID_15_" x="-481.63" y="-1995.04" width="1024" height="4050"/>
	</defs>
	<clipPath id="SVGID_16_">
		<use xlink:href="#SVGID_15_"  style="overflow:visible;"/>
	</clipPath>
	<path class="st15" d="M-123.11-1721.58c0,5.14,0,7.61,4.75,7.61v0.31h-18.55v-0.31c4.75,0,4.75-2.46,4.75-7.61v-4.57l-7.61-12.62
		c-2.29-3.74-3.43-5.36-6.51-5.36v-0.31h18.78v0.31c-4.88,0-2.51,4.4-1.19,6.73l5.32,9.5l2.24-4.27c2.9-5.54,6.2-11.96-0.09-11.96
		v-0.31h12.84v0.31c-4.88,0-9.01,5.67-12.35,12.09l-2.38,4.53V-1721.58z"/>
	<path class="st15" d="M-72.55-1712.17l-24.49-27.48v12.93c0,6.02,0.18,12.75,6.86,12.75v0.31h-14.47v-0.31
		c6.82,0,7.12-6.73,7.12-13.59v-8.35c0-4.88-0.48-8.22-7.12-8.22v-0.31h15.08l16.53,18.78v-5.72c0-6.02-0.18-12.75-6.86-12.75v-0.31
		h14.47v0.31c-6.82,0-7.12,6.73-7.12,13.59V-1712.17z"/>
	<path class="st15" d="M-31.71-1724.13c0,7.52-3.61,10.77-11.48,10.77c-8.71,0-13.98-1.98-13.98-11.26v-11.92
		c0-5.32,0-7.61-4.75-7.61v-0.31h17.63v0.31c-3.39,0-3.82,1.98-3.82,7.61v10.47c0,5.54,0.4,12.09,6.64,12.09
		c5.67,0,9.28-3.08,9.28-10.16v-7.25c0-6.02-0.18-12.75-6.86-12.75v-0.31h14.47v0.31c-6.82,0-7.12,6.73-7.12,13.59V-1724.13z"/>
	<path class="st15" d="M-8.63-1713.97c4.75,0,4.75-2.46,4.75-7.61v-14.95c0-5.32,0-7.61-4.75-7.61v-0.31H7.59
		c9.63,0,14.73,2.55,14.73,8.93c0,7.52-9.41,9.01-15.79,9.01H5.17v4.93c0,5.32,0.13,7.61,5.36,7.61v0.31H-8.63V-1713.97z
		 M6.36-1726.86c4.57,0,6.29-2.64,6.29-8.66c0-5.98-1.72-8.62-6.2-8.62H5.17v17.28H6.36z"/>
	<path class="st15" d="M55.78-1733.85h-0.44c-0.75-6.64-3.74-10.2-11.3-10.2h-4.4v14.51c4.88,0,8.57-2.2,8.84-6.9h0.31l-0.75,14.2
		h-0.31c0.22-4.27-3.21-6.99-8.09-6.99v11.12c0,3.12,0.66,4.05,2.64,4.05c8.79,0,13.32-4.93,14.69-12.71h0.44l-2.11,13.1H25.83
		v-0.31c4.75,0,4.75-2.46,4.75-7.61v-14.95c0-5.32,0-7.61-4.75-7.61v-0.31h28.84L55.78-1733.85z"/>
	<path class="st15" d="M96.4-1729.06c0,9.98-8.22,15.7-16.75,15.7c-8.53,0-16.75-5.72-16.75-15.7c0-9.36,7.52-15.7,16.75-15.7
		C88.88-1744.75,96.4-1738.42,96.4-1729.06 M86.42-1729.06c0-5.01,0-15.34-6.77-15.34c-6.77,0-6.77,10.33-6.77,15.34
		c0,5.15,0,15.35,6.77,15.35C86.42-1713.71,86.42-1723.91,86.42-1729.06"/>
	<path class="st15" d="M101.23-1713.97c4.75,0,4.75-2.46,4.75-7.61v-14.95c0-5.32,0-7.61-4.75-7.61v-0.31h16.23
		c9.63,0,14.73,2.55,14.73,8.93c0,7.52-9.41,9.01-15.79,9.01h-1.36v4.93c0,5.32,0.13,7.61,5.36,7.61v0.31h-19.17V-1713.97z
		 M116.23-1726.86c4.57,0,6.29-2.64,6.29-8.66c0-5.98-1.72-8.62-6.2-8.62h-1.27v17.28H116.23z"/>
	<path class="st15" d="M156.94-1744.14c-5.98,0-6.11,1.72-6.11,7.61v17.1c0,4.35,0.26,5.41,3.52,5.41c7.74,0,12.09-5.89,13.76-13.46
		h0.31l-2.77,13.81h-28.62v-0.31c4.75,0,4.75-2.46,4.75-7.61v-14.95c0-5.32,0-7.61-4.75-7.61v-0.31h19.92V-1744.14z"/>
	<path class="st15" d="M202.09-1733.85h-0.44c-0.75-6.64-3.74-10.2-11.3-10.2h-4.4v14.51c4.88,0,8.57-2.2,8.84-6.9h0.31l-0.75,14.2
		h-0.31c0.22-4.27-3.21-6.99-8.09-6.99v11.12c0,3.12,0.66,4.05,2.64,4.05c8.79,0,13.32-4.93,14.69-12.71h0.44l-2.11,13.1h-29.46
		v-0.31c4.75,0,4.75-2.46,4.75-7.61v-14.95c0-5.32,0-7.61-4.75-7.61v-0.31h28.84L202.09-1733.85z"/>
</g>
<g>
	<defs>
		<rect id="SVGID_17_" x="-481.63" y="-1995.04" width="1024" height="4050"/>
	</defs>
	<clipPath id="SVGID_18_">
		<use xlink:href="#SVGID_17_"  style="overflow:visible;"/>
	</clipPath>
	<polyline class="st16" points="-288.87,1775.59 -300.48,1784.86 -288.87,1794.13 	"/>
</g>
<rect x="-481.63" y="-1995.04" class="st5" width="60" height="60"/>
<rect x="-452.63" y="-1978.5" transform="matrix(0.7071 -0.7071 0.7071 0.7071 1257.201 -894.8722)" class="st6" width="2" height="26.92"/>
<rect x="-465.08" y="-1966.04" transform="matrix(0.7071 -0.7071 0.7071 0.7071 1257.2146 -894.8944)" class="st6" width="26.92" height="2"/>
<g>
	<rect class="st5" width="60" height="60"/>
	<polygon class="st6" points="40.22,38.81 31.41,30 40.22,21.19 38.81,19.78 30,28.59 21.19,19.78 19.78,21.19 28.59,30 
		19.78,38.81 21.19,40.22 30,31.41 38.81,40.22 	"/>
</g>
</svg>
