<?xml version="1.0" encoding="utf-8"?>
<!-- Generator: Adobe Illustrator 24.0.3, SVG Export Plug-In . SVG Version: 6.00 Build 0)  -->
<svg version="1.1" id="レイヤー_1" xmlns="http://www.w3.org/2000/svg" xmlns:xlink="http://www.w3.org/1999/xlink" x="0px"
	 y="0px" viewBox="0 0 391.08 46.3" style="enable-background:new 0 0 391.08 46.3;" xml:space="preserve">
<style type="text/css">
	.st0{fill:#005BAB;}
	.st1{fill:#231815;}
</style>
<g>
	<path class="st0" d="M48.15,2.48C47.92,2,47.44,1.69,46.91,1.69h-9.36c-0.41,0-0.8,0.19-1.07,0.51L24.14,19.44L11.75,2.2
		c-0.26-0.32-0.66-0.5-1.07-0.5h-9.3C0.85,1.69,0.36,2,0.14,2.48c-0.23,0.48-0.16,1.05,0.18,1.47l18.65,25.01v13.47
		c0,0.37,0.15,0.72,0.41,0.98c0.26,0.26,0.61,0.41,0.98,0.41h7.59c0.37,0,0.72-0.14,0.98-0.41c0.26-0.26,0.4-0.61,0.4-0.98V28.95
		l18.66-25C48.31,3.53,48.38,2.96,48.15,2.48z"/>
	<path class="st1" d="M67.33,1.69c0.25,0,0.59,0.15,0.76,0.34l22.63,25.01c0.16,0.18,0.3,0.13,0.3-0.12V2.14
		c0-0.25,0.2-0.45,0.45-0.45h9.05c0.25,0,0.46,0.2,0.46,0.45v41.21c0,0.25-0.2,0.45-0.46,0.45h-7.52c-0.25,0-0.59-0.15-0.76-0.34
		L67.57,15.95c-0.16-0.19-0.3-0.13-0.3,0.12v27.29c0,0.25-0.21,0.45-0.46,0.45h-8.85c-0.25,0-0.45-0.2-0.45-0.45V2.14
		c0-0.25,0.2-0.45,0.45-0.45H67.33z"/>
	<path class="st1" d="M153.04,1.69h-8.97c-0.25,0-0.45,0.2-0.45,0.45v23.41c-0.04,3.55-1.04,5.52-2.72,6.93
		c-1.7,1.4-4.57,2.29-8.61,2.29c-4.04,0-6.91-0.88-8.62-2.29c-1.68-1.4-2.68-3.37-2.71-6.93V2.14c0-0.25-0.2-0.45-0.45-0.45h-8.97
		c-0.25,0-0.45,0.2-0.45,0.45v23.41c-0.07,7.19,3.03,12.3,7.36,15c4.3,2.73,9.38,3.38,13.84,3.38c4.45-0.01,9.54-0.66,13.84-3.38
		c4.33-2.7,7.44-7.82,7.36-15V2.14C153.49,1.89,153.29,1.69,153.04,1.69z"/>
	<g>
		<path class="st1" d="M186.61,8.09V5.82h-3.19V3.13h3.19V0.5l3.5,0.16c0.31,0,0.66,0.18,0.66,0.4c0,0.22-0.19,0.34-0.62,0.56v1.5
			h2.91V0.44l3.56,0.19c0.18,0,0.62,0.09,0.62,0.41c0,0.21-0.19,0.31-0.62,0.5v1.59h4.34v2.69h-4.34v2.28h4.84v2.78h-7.91v1.69h6.38
			v10.88h-3.66c3.06,2.09,4.62,2.59,5.41,2.81c-1.06,1.16-1.12,1.28-2,2.82c-1.5-0.6-3.97-1.66-6.66-4.1l1.56-1.53h-5.04l1.32,1.16
			c0.19,0.16,0.41,0.41,0.41,0.62c0,0.28-0.32,0.34-1.22,0.28c-2.84,2.22-4.53,3.09-5.94,3.72c-0.81-1.13-1.09-1.41-2.38-2.66
			c1.12-0.41,3.19-1.19,5.69-3.12h-3.62V12.57h6.22v-1.69h-7.91V8.85h-2.47V9.6c1.59,3.38,3.34,5.12,4,5.78
			c-0.41,0.31-1.12,0.91-2,2.72c-0.38-0.46-1-1.31-2-3.18V29.2h-3.35V17.13c-0.59,1.66-1.18,3.04-2.06,4.47
			c-0.88-1.03-1.57-1.53-2.72-2.28c3.38-4.16,4.5-9.22,4.78-10.47h-3.84V5.66h3.84V0.28l3.28,0.19c0.41,0.03,0.79,0.16,0.79,0.5
			c0,0.22-0.47,0.46-0.72,0.59v4.09h3.03v2.43H186.61z M187.26,16.79h2.75v-1.56h-2.75V16.79z M190.01,20.73v-1.59h-2.75v1.59
			H190.01z M193.05,8.09V5.82h-2.91v2.28H193.05z M193.55,15.22v1.56h2.81v-1.56H193.55z M196.36,19.13h-2.81v1.59h2.81V19.13z"/>
		<path class="st1" d="M210.24,26.82c3-4.25,4.56-7.5,5.75-10.35c0.88,1.03,1.91,1.84,2.88,2.41c-1.78,3.97-2.44,5.16-4.63,8.95
			c0.1,0.22,0.22,0.43,0.22,0.69c0,0.22-0.19,0.31-0.38,0.31c-0.19,0-0.44-0.09-0.66-0.22L210.24,26.82z M212.27,8.66
			c1.56,0.72,4.47,2.25,5.88,3.34c-0.78,1-1.12,1.56-2.03,3.13c-2.16-1.59-5.12-2.91-5.72-3.19L212.27,8.66z M214.52,1.19
			c2.12,0.93,4.28,2.28,5.5,3.41c-0.78,1-1.78,2.44-2.22,3.06c-1.16-0.97-3.94-2.72-5.41-3.47L214.52,1.19z M235.15,17.04h4.56v3.41
			h-6.38c1.47,1.81,4.69,4.69,7.25,6c-1.16,0.96-1.25,1.06-2.82,2.84c-2.75-1.78-5.93-4.75-7.66-7l2.5-1.84h-7.28l2.69,1.81
			c0.16,0.09,0.28,0.22,0.28,0.38c0,0.31-0.44,0.5-1,0.41c-1.44,1.94-4.53,4.88-6.91,6.25c-0.34-0.38-1.69-1.75-3.25-2.69
			c3.41-1.66,6.31-4.72,7.56-6.16h-5.62v-3.41h2.84V2.44l1.75,0.38c4.47,0.09,10-1.44,11.85-2.38l2.22,3.03
			c0.16,0.22,0.31,0.41,0.31,0.63c0,0.25-0.28,0.31-0.47,0.31c-0.38,0-0.69-0.16-0.97-0.28c-3.19,1.06-7.97,1.62-10.91,1.72v2.38
			h13.16v3.47h-3.72V17.04z M231.49,11.69h-5.78v5.35h5.78V11.69z"/>
		<path class="st1" d="M254.28,27.54v1.47h-3.81V1.47h26.66v27.51h-3.79v-1.44H254.28z M273.35,24.1V4.72h-19.07V24.1H273.35z
			 M265.51,12.38h5.38v2.9h-1.6c0.94,1.07,1.6,1.97,2.16,2.91c-0.25,0.16-1.07,0.72-1.59,1.1h2.59v3.03h-17.1v-3.03h6.41v-4h-5v-2.9
			h5V9.54h-6.06v-3h16.41v3h-6.59V12.38z M268.07,15.29h-2.56v4h2.72c-0.12-0.22-0.97-1.54-2-2.69L268.07,15.29z"/>
		<path class="st1" d="M315.58,24.51v3.69h-28.54v-3.69h14.82c1.81-5,3-9.97,3.66-13.6l3.91,1.06c0.19,0.07,0.54,0.16,0.54,0.47
			c0,0.22-0.25,0.34-0.69,0.5c-0.31,1.19-1.72,6.07-2.03,7.07c-0.75,2.44-1.16,3.53-1.5,4.5H315.58z M299.23,0.34l4.04,0.09
			c0.16,0,0.59,0.03,0.59,0.38c0,0.25-0.22,0.41-0.53,0.57v4.88h10.69v3.66h-25.6V6.25h10.81V0.34z M295.48,11.48
			c0.31,0.62,2.63,5.15,3.69,10.94c-0.75,0.19-3.25,0.91-3.79,1.06c-0.47-2.72-1.12-6.25-3.47-10.82L295.48,11.48z"/>
		<path class="st1" d="M324.58,12.04V8.22h12.25v-8l4.09,0.22c0.47,0.03,0.69,0.16,0.69,0.41c0,0.28-0.34,0.41-0.69,0.5v6.88h12.07
			v3.82h-11.97c1.41,4.59,4.29,10.25,12.41,14.34c-1.84,1.41-2.38,2-3.03,3.09c-3.34-1.5-8.69-6.09-11.47-12.32
			c-3.59,7.73-8.84,10.63-12.47,12.38c-0.31-0.72-0.81-1.69-2.78-3.47c2.62-1.03,10.72-4.28,12.72-14.03H324.58z"/>
		<path class="st1" d="M391.25,18.47v3.22h-11.91v4.25c0,3.29-2.32,3.41-7.38,3.34c-0.19-0.9-0.59-2.66-1.22-3.72
			c0.53,0.03,2.94,0.12,3.41,0.12c1.34,0,1.34-0.19,1.34-1.81V21.7h-12.25v-3.22h12.25V16.2l1.62,0.21
			c1.04-0.78,2.25-1.75,2.79-2.18h-11.04v-3.16h15.57l1.12,2.22c-1.16,1.25-3.78,3.44-6.22,5.19H391.25z M375.94,6.13
			c-0.53-1.22-1.78-3.16-3.09-4.59L376.19,0c0.93,1,2.53,3.28,3.12,4.56c-0.34,0.19-2.82,1.47-2.94,1.57H381
			c1.62-2.06,2.5-3.29,3.66-5.47l3.72,1.21c0.19,0.07,0.5,0.19,0.5,0.47c0,0.38-0.5,0.44-1.06,0.5c-1.09,1.72-1.84,2.72-2.25,3.29
			h5.38v7.94h-3.72V9.13h-20v4.94h-3.66V6.13h4.75c-0.53-0.91-1.78-2.88-2.65-3.81l3.16-1.63c1.19,1.16,2.47,3.16,3.06,4.35
			c-1.12,0.53-1.78,0.91-2.04,1.09H375.94z"/>
	</g>
	<g>
		<g>
			<path class="st1" d="M176.29,40.5l-4.12-5.32h2.02l2.93,3.76l2.91-3.76h2.04l-4.12,5.32v3.55h-1.65V40.5z"/>
			<path class="st1" d="M187.33,34.95c3.72,0,5.03,2.3,5.03,4.73c0,1.84-1.04,4.59-5.03,4.59c-3.99,0-5.03-2.75-5.03-4.59
				C182.31,37.25,183.62,34.95,187.33,34.95z M190.72,39.58c0-2.14-1.46-3.14-3.38-3.14c-1.93,0-3.38,1-3.38,3.14
				c0,2.52,1.8,3.2,3.38,3.2C188.91,42.78,190.72,42.1,190.72,39.58z"/>
			<path class="st1" d="M193.92,35.18h1.65v4.14l4.68-4.14h2.34l-4.03,3.52l4.44,5.36h-2.16l-3.47-4.33l-1.8,1.57v2.76h-1.65V35.18z
				"/>
			<path class="st1" d="M208.37,34.95c3.71,0,5.03,2.3,5.03,4.73c0,1.84-1.04,4.59-5.03,4.59c-4,0-5.03-2.75-5.03-4.59
				C203.35,37.25,204.66,34.95,208.37,34.95z M211.76,39.58c0-2.14-1.45-3.14-3.38-3.14c-1.93,0-3.38,1-3.38,3.14
				c0,2.52,1.8,3.2,3.38,3.2C209.95,42.78,211.76,42.1,211.76,39.58z"/>
			<path class="st1" d="M214.96,35.18h1.65v3.52h5.67v-3.52h1.65v8.88h-1.65v-3.82h-5.67v3.82h-1.65V35.18z"/>
			<path class="st1" d="M229.46,35.18h1.88l4.1,8.88h-1.74l-0.88-2.04h-4.87l-0.89,2.04h-1.75L229.46,35.18z M232.16,40.52
				l-1.77-3.96l-1.76,3.96H232.16z"/>
			<path class="st1" d="M238.31,37.32h-0.02v6.73h-1.46v-8.88h2.22l2.64,6.58l2.68-6.58h2.17v8.88h-1.46v-6.73h-0.02l-2.7,6.73
				h-1.31L238.31,37.32z"/>
			<path class="st1" d="M252.08,35.18h1.88l4.1,8.88h-1.74l-0.88-2.04h-4.87l-0.89,2.04h-1.75L252.08,35.18z M254.78,40.52
				l-1.76-3.96l-1.77,3.96H254.78z"/>
			<path class="st1" d="M264.39,35.18h1.74l5.64,6.41v-6.41h1.58v8.88h-1.51l-5.88-6.64v6.64h-1.58V35.18z"/>
			<path class="st1" d="M281.53,42.99c0,0.44,0.02,0.88,0.12,1.06h-1.47c-0.05-0.22-0.08-0.44-0.08-0.66
				c-0.61,0.37-1.5,0.88-2.73,0.88c-0.82,0-2.41-0.36-2.41-1.98c0-2.21,3.14-2.53,5.14-2.65v-0.29c0-0.5-0.43-0.86-1.62-0.86
				c-1.32,0-1.6,0.51-1.68,0.87h-1.5c0.35-1.79,2.01-2.09,3.17-2.09c3.01,0,3.07,1.54,3.07,2.45V42.99z M280.09,40.74
				c-0.84,0.04-1.57,0.16-2.24,0.33c-0.89,0.22-1.31,0.54-1.32,1.11c-0.01,0.56,0.34,0.91,1.05,0.91c1.09,0,1.96-0.5,2.52-0.86
				V40.74z"/>
			<path class="st1" d="M282.88,37.71h1.11v-2.14h1.44v2.14h2.17v1.29h-2.17v3c0,0.46,0.18,0.96,1.01,0.96
				c0.28,0,0.86-0.07,1.23-0.18v1.33c-0.71,0.1-1.04,0.14-1.55,0.14c-1.37,0-2.12-0.46-2.12-1.9v-3.36h-1.11V37.71z"/>
			<path class="st1" d="M289.4,34.95h1.44v1.34h-1.44V34.95z M289.4,37.49h1.44v6.56h-1.44V37.49z"/>
			<path class="st1" d="M292.22,40.77c0-1.76,1.01-3.5,3.5-3.5c2.48,0,3.49,1.73,3.49,3.5c0,2.61-1.79,3.5-3.49,3.5
				S292.22,43.38,292.22,40.77z M297.75,40.74c0-1.54-0.94-2.18-2.03-2.18c-1.1,0-2.04,0.64-2.04,2.18c0,1.39,0.75,2.23,2.04,2.23
				C297.01,42.98,297.75,42.13,297.75,40.74z"/>
			<path class="st1" d="M300.18,37.49h1.41v0.82c0.46-0.46,1.07-1.04,2.34-1.04c1.3,0,2.44,0.57,2.44,2.58v4.2h-1.44v-3.64
				c0-1.29-0.37-1.84-1.34-1.84c-1.15,0-1.61,0.5-1.97,0.96v4.52h-1.44V37.49z"/>
			<path class="st1" d="M314.1,42.99c0,0.44,0.02,0.88,0.12,1.06h-1.48c-0.05-0.22-0.08-0.44-0.08-0.66
				c-0.6,0.37-1.5,0.88-2.73,0.88c-0.83,0-2.42-0.36-2.42-1.98c0-2.21,3.14-2.53,5.14-2.65v-0.29c0-0.5-0.43-0.86-1.61-0.86
				c-1.33,0-1.61,0.51-1.69,0.87h-1.5c0.35-1.79,2.02-2.09,3.17-2.09c3.01,0,3.07,1.54,3.07,2.45V42.99z M312.66,40.74
				c-0.84,0.04-1.57,0.16-2.24,0.33c-0.89,0.22-1.32,0.54-1.32,1.11c-0.01,0.56,0.34,0.91,1.04,0.91c1.09,0,1.96-0.5,2.52-0.86
				V40.74z"/>
			<path class="st1" d="M315.89,35.18h1.44v8.88h-1.44V35.18z"/>
			<path class="st1" d="M333.43,40.24c0,2.86-1.73,4.03-4.48,4.03c-2.75,0-4.48-1.17-4.48-4.03v-5.07h1.65v4.94
				c0,1.47,0.5,2.66,2.83,2.66c2.33,0,2.84-1.2,2.84-2.66v-4.94h1.64V40.24z"/>
			<path class="st1" d="M335.08,37.49h1.42v0.82c0.45-0.46,1.07-1.04,2.34-1.04c1.3,0,2.44,0.57,2.44,2.58v4.2h-1.44v-3.64
				c0-1.29-0.38-1.84-1.34-1.84c-1.15,0-1.61,0.5-1.97,0.96v4.52h-1.44V37.49z"/>
			<path class="st1" d="M342.83,34.95h1.44v1.34h-1.44V34.95z M342.83,37.49h1.44v6.56h-1.44V37.49z"/>
			<path class="st1" d="M347.28,37.49l2.1,4.86l2.09-4.86h1.58l-2.98,6.56h-1.44l-2.94-6.56H347.28z"/>
			<path class="st1" d="M360.58,42.09c-0.11,0.54-0.94,2.18-3.25,2.18c-2.23,0-3.57-1.46-3.57-3.52c0-1.86,1.16-3.48,3.46-3.48
				c2.35,0.02,3.47,1.55,3.47,3.92h-5.47c0.06,0.41,0.28,1.78,2.05,1.86c0.91,0,1.51-0.45,1.72-0.96H360.58z M359.17,40.02
				c-0.22-1.12-0.94-1.53-1.98-1.53c-0.75,0-1.62,0.27-1.91,1.53H359.17z"/>
			<path class="st1" d="M362.05,37.49h1.44v0.98h0.04c0.31-0.54,0.94-1.2,2.18-1.2c0.21,0,0.36,0,0.51,0.02v1.64
				c-0.14-0.04-0.4-0.12-0.88-0.12c-1.83,0.01-1.83,1.29-1.85,1.76v3.48h-1.44V37.49z"/>
			<path class="st1" d="M372.32,39.51c-0.22-0.3-0.72-1.02-2.03-1.02c-1.05,0-1.39,0.42-1.39,0.79c0,0.51,0.61,0.6,1.46,0.72
				c1.71,0.23,3.26,0.5,3.26,2.12c0,1.93-2.1,2.15-3.11,2.15c-2.15,0-2.82-0.9-3.36-1.6l1.22-0.75c0.5,0.86,1.37,1.12,2.28,1.12
				c0.77,0,1.46-0.25,1.46-0.82c0-0.5-0.34-0.55-1.88-0.77c-2.36-0.32-2.84-1.11-2.84-2.11c0-0.68,0.51-2.09,2.93-2.09
				c0.71,0,2.25,0.17,3.2,1.55L372.32,39.51z"/>
			<path class="st1" d="M374.76,34.95h1.44v1.34h-1.44V34.95z M374.76,37.49h1.44v6.56h-1.44V37.49z"/>
			<path class="st1" d="M377.54,37.71h1.12v-2.14h1.44v2.14h2.18v1.29h-2.18v3c0,0.46,0.18,0.96,1.01,0.96
				c0.28,0,0.86-0.07,1.23-0.18v1.33c-0.71,0.1-1.04,0.14-1.55,0.14c-1.37,0-2.12-0.46-2.12-1.9v-3.36h-1.12V37.71z"/>
			<path class="st1" d="M383.86,44.8c0.18,0.05,0.5,0.15,0.88,0.15c1.18,0,1.58-0.52,1.58-1.02c0-0.31-0.06-0.6-0.25-1.03l-2.5-5.41
				h1.58l2.11,4.79l2.11-4.79h1.58l-3.24,7.08c-0.56,1.24-1.46,1.72-2.6,1.72c-0.56,0-1-0.1-1.25-0.2V44.8z"/>
		</g>
	</g>
</g>
</svg>
