<?xml version="1.0" encoding="utf-8"?>
<!-- Generator: Adobe Illustrator 24.0.3, SVG Export Plug-In . SVG Version: 6.00 Build 0)  -->
<svg version="1.1" id="レイヤー_1" xmlns="http://www.w3.org/2000/svg" xmlns:xlink="http://www.w3.org/1999/xlink" x="0px"
	 y="0px" viewBox="0 0 172 64" style="enable-background:new 0 0 172 64;" xml:space="preserve">
<style type="text/css">
	.st0{fill:#AFAFAF;}
</style>
<g>
	<g>
		<path class="st0" d="M10.18,4.9c0.67-1.52,1.98-4.67-0.7-4.67V0.11h4.83v0.11c-1.92,0-3.09,2.79-3.95,4.69l-3.15,6.95l-4.27-8.9
			C2.04,1.07,1.4,0.22,0.24,0.22V0.11h6.83v0.11c-1.5,0-1.34,1.23-0.74,2.59l2.4,5.28L10.18,4.9z"/>
		<path class="st0" d="M26.57,3.97h-0.16c-0.27-2.42-1.36-3.71-4.11-3.71h-1.6v5.28c1.78,0,3.12-0.8,3.22-2.51h0.11L23.75,8.2h-0.11
			c0.08-1.55-1.17-2.55-2.95-2.55V9.7c0,1.14,0.24,1.47,0.96,1.47c3.2,0,4.85-1.79,5.35-4.63h0.16l-0.77,4.77H15.67V11.2
			c1.73,0,1.73-0.9,1.73-2.77V2.99c0-1.94,0-2.77-1.73-2.77V0.11h10.5L26.57,3.97z"/>
		<path class="st0" d="M40.1,11.86l-8.92-10v4.71c0,2.19,0.06,4.64,2.5,4.64v0.11h-5.27V11.2c2.48,0,2.59-2.45,2.59-4.95V3.22
			c0-1.78-0.18-2.99-2.59-2.99V0.11h5.49l6.02,6.83V4.87c0-2.19-0.06-4.64-2.5-4.64V0.11h5.27v0.11c-2.48,0-2.59,2.45-2.59,4.95
			V11.86z"/>
		<path class="st0" d="M55.42,0.11l0.4,3.78h-0.16c-0.27-2.42-1.36-3.63-4.11-3.63v8.18c0,1.87,0,2.77,1.73,2.77v0.11h-6.75V11.2
			c1.73,0,1.73-0.9,1.73-2.77V0.26c-2.75,0-3.84,1.22-4.11,3.63h-0.16l0.4-3.78H55.42z"/>
		<path class="st0" d="M68.17,7.51c0,2.74-1.31,3.92-4.18,3.92c-3.17,0-5.09-0.72-5.09-4.1V2.99c0-1.94,0-2.77-1.73-2.77V0.11h6.42
			v0.11c-1.23,0-1.39,0.72-1.39,2.77V6.8c0,2.02,0.14,4.4,2.42,4.4c2.06,0,3.38-1.12,3.38-3.7V4.87c0-2.19-0.06-4.64-2.5-4.64V0.11
			h5.27v0.11c-2.48,0-2.59,2.45-2.59,4.95V7.51z"/>
		<path class="st0" d="M72.1,11.2c1.73,0,1.73-0.9,1.73-2.77V2.99c0-1.94,0-2.77-1.73-2.77V0.11h4.87c2.69,0,6.42,0.06,6.42,2.67
			c0,2.27-2.83,2.75-4.74,2.83v0.03c3.3,0,3.89,1.07,4.85,3.03c1.07,2.19,1.1,2.58,2.23,2.53v0.11c-0.99,0.06-1.82,0.16-2.54,0.16
			c-1.52,0-2.53-0.43-3.33-2.54c-0.4-1.04-0.88-3.23-2.4-3.23h-0.32v2.74c0,1.9,0.02,2.77,1.42,2.77v0.11H72.1V11.2z M77.61,5.57
			c1.57,0,2.26-0.82,2.26-2.63c0-1.57-0.53-2.69-2.26-2.69h-0.48v5.31H77.61z"/>
		<path class="st0" d="M97.9,3.97h-0.16c-0.27-2.42-1.36-3.71-4.11-3.71h-1.6v5.28c1.78,0,3.12-0.8,3.22-2.51h0.11L95.08,8.2h-0.11
			c0.08-1.55-1.17-2.55-2.94-2.55V9.7c0,1.14,0.24,1.47,0.96,1.47c3.2,0,4.85-1.79,5.35-4.63h0.16l-0.77,4.77H86.99V11.2
			c1.73,0,1.73-0.9,1.73-2.77V2.99c0-1.94,0-2.77-1.73-2.77V0.11h10.5L97.9,3.97z"/>
		<path class="st0" d="M113.37,3.95h-0.11c-0.26-1.81-1.28-3.81-3.78-3.81c-1.3,0-2.24,0.62-2.24,1.62c0,2.61,6.98,2.06,6.98,6.05
			c0,2.26-2.37,3.62-5.15,3.62c-1.06,0-2.18-0.19-2.77-0.35l-1.2,0.32l-0.26-4.63h0.11c0.26,1.87,1.31,4.51,4.26,4.51
			c1.55,0,2.62-0.66,2.62-1.73c0-2.62-7.06-2.32-7.06-6.19c0-2.11,2.22-3.36,4.55-3.36c0.91,0,2.03,0.19,2.62,0.35l1.22-0.32
			L113.37,3.95z"/>
		<path class="st0" d="M115.81,11.2c1.73,0,1.73-0.9,1.73-2.77V2.99c0-1.94,0-2.77-1.73-2.77V0.11h5.91c3.51,0,5.36,0.93,5.36,3.25
			c0,2.74-3.43,3.28-5.75,3.28h-0.5v1.79c0,1.94,0.05,2.77,1.95,2.77v0.11h-6.98V11.2z M121.27,6.51c1.67,0,2.29-0.96,2.29-3.15
			c0-2.18-0.62-3.14-2.26-3.14h-0.46v6.29H121.27z"/>
		<path class="st0" d="M128.83,11.32V11.2c1.73,0,1.73-0.9,1.73-2.77V2.99c0-1.94,0-2.77-1.73-2.77V0.11h6.75v0.11
			c-1.73,0-1.73,0.83-1.73,2.77v5.44c0,1.87,0,2.77,1.73,2.77v0.11H128.83z"/>
		<path class="st0" d="M136.95,11.2c1.73,0,1.73-0.9,1.73-2.77V2.99c0-1.94,0-2.77-1.73-2.77V0.11h4.87c2.69,0,6.42,0.06,6.42,2.67
			c0,2.27-2.83,2.75-4.74,2.83v0.03c3.3,0,3.89,1.07,4.85,3.03c1.07,2.19,1.1,2.58,2.22,2.53v0.11c-0.99,0.06-1.82,0.16-2.54,0.16
			c-1.52,0-2.53-0.43-3.33-2.54c-0.4-1.04-0.88-3.23-2.4-3.23h-0.32v2.74c0,1.9,0.02,2.77,1.42,2.77v0.11h-6.45V11.2z M142.45,5.57
			c1.57,0,2.26-0.82,2.26-2.63c0-1.57-0.53-2.69-2.26-2.69h-0.48v5.31H142.45z"/>
		<path class="st0" d="M151.84,11.32V11.2c1.73,0,1.73-0.9,1.73-2.77V2.99c0-1.94,0-2.77-1.73-2.77V0.11h6.75v0.11
			c-1.73,0-1.73,0.83-1.73,2.77v5.44c0,1.87,0,2.77,1.73,2.77v0.11H151.84z"/>
		<path class="st0" d="M171.4,0.11l0.4,3.78h-0.16c-0.27-2.42-1.36-3.63-4.11-3.63v8.18c0,1.87,0,2.77,1.73,2.77v0.11h-6.75V11.2
			c1.73,0,1.73-0.9,1.73-2.77V0.26c-2.75,0-3.84,1.22-4.11,3.63h-0.16l0.4-3.78H171.4z"/>
	</g>
	
		<rect x="69.56" y="48.86" transform="matrix(0.7049 -0.7093 0.7093 0.7049 -10.686 76.0324)" class="st0" width="32.96" height="4"/>
</g>
</svg>
